%
M48
M72
T01C0.02362
T02C0.03150
T03C0.03200
T04C0.03937
T05C0.04000
T06C0.07480
%
T01
X26800Y23050
X35550Y44300
X20719Y51800
X16866Y46839
X31800Y66800
X43050Y83050
X60550Y73050
X69300Y35550
X105550Y49300
X105550Y95550
X99300Y150550
X101800Y161800
X44300Y120550
X20550Y123050
X24300Y86800
X185550Y76800
T02
X18001Y166721
X21150Y171446
X24300Y166721
X27450Y171446
X30599Y166721
X57676Y185550
X65550Y185550
X73424Y185550
T03
X89300Y160550
X89300Y150550
X89300Y140550
X89300Y130550
X89300Y120550
X89300Y110550
X89300Y100550
X89300Y90550
X89300Y80550
X89300Y70550
X89300Y60550
X89300Y50550
X89300Y40550
X89300Y30550
X100550Y13050
X110550Y13050
X119300Y10550
X119300Y30550
X119300Y40550
X119300Y50550
X119300Y60550
X119300Y70550
X119300Y80550
X119300Y90550
X119300Y100550
X119300Y110550
X119300Y120550
X119300Y130550
X119300Y140550
X119300Y150550
X119300Y160550
X119300Y183050
X114300Y190550
X109300Y183050
X141800Y183050
X141800Y173050
X155550Y173050
X155550Y183050
X170550Y183050
X170550Y173050
X185550Y173050
X185550Y183050
X185550Y146800
X165550Y146800
X138050Y100550
X138050Y80550
X191800Y53050
X191800Y13050
X180550Y13050
X170550Y13050
X159300Y10550
X60550Y26800
X43050Y35550
X60550Y66800
X43050Y75550
T04
X49802Y185550
X81298Y185550
T05
X6800Y136800
X6800Y126800
X6800Y116800
X6800Y106800
X6800Y96800
X6800Y86800
X6800Y76800
X6800Y66800
X6800Y56800
X6800Y46800
X6800Y36800
X6800Y26800
X6800Y16800
X23050Y13050
X43050Y13050
X64300Y13050
X84300Y13050
X74300Y66800
X74300Y76800
X74300Y86800
X193800Y86800
X193800Y76800
X193800Y66800
X193800Y96800
X193800Y106800
X193800Y116800
X193800Y126800
X193800Y136800
T06
X9930Y186800
X38670Y186800
M30
