G75*
%MOIN*%
%OFA0B0*%
%FSLAX25Y25*%
%IPPOS*%
%LPD*%
%AMOC8*
5,1,8,0,0,1.08239X$1,22.5*
%
%ADD10C,0.00000*%
%ADD11OC8,0.05600*%
%ADD12C,0.05600*%
%ADD13C,0.05550*%
%ADD14C,0.11620*%
%ADD15C,0.06337*%
%ADD16C,0.07800*%
%ADD17C,0.05600*%
D10*
X0001800Y0001800D02*
X0001800Y0198650D01*
X0198650Y0198650D01*
X0198650Y0001800D01*
X0001800Y0001800D01*
D11*
X0043050Y0035550D03*
X0060550Y0026800D03*
X0060550Y0066800D03*
X0043050Y0075550D03*
X0100550Y0013050D03*
X0110550Y0013050D03*
X0119300Y0010550D03*
X0159300Y0010550D03*
X0170550Y0013050D03*
X0180550Y0013050D03*
X0191800Y0013050D03*
X0191800Y0053050D03*
X0138050Y0100550D03*
X0165550Y0146800D03*
X0170550Y0173050D03*
X0170550Y0183050D03*
X0185550Y0183050D03*
X0185550Y0173050D03*
X0155550Y0173050D03*
X0155550Y0183050D03*
X0141800Y0183050D03*
X0141800Y0173050D03*
X0119300Y0183050D03*
X0114300Y0190550D03*
X0109300Y0183050D03*
D12*
X0185550Y0146800D03*
X0138050Y0080550D03*
D13*
X0073424Y0185550D03*
X0065550Y0185550D03*
X0057676Y0185550D03*
X0030599Y0166721D03*
X0027450Y0171446D03*
X0024300Y0166721D03*
X0021150Y0171446D03*
X0018001Y0166721D03*
D14*
X0009930Y0186800D03*
X0038670Y0186800D03*
D15*
X0049802Y0185550D03*
X0081298Y0185550D03*
D16*
X0006800Y0136800D03*
X0006800Y0126800D03*
X0006800Y0116800D03*
X0006800Y0106800D03*
X0006800Y0096800D03*
X0006800Y0086800D03*
X0006800Y0076800D03*
X0006800Y0066800D03*
X0006800Y0056800D03*
X0006800Y0046800D03*
X0006800Y0036800D03*
X0006800Y0026800D03*
X0006800Y0016800D03*
X0023050Y0013050D03*
X0043050Y0013050D03*
X0064300Y0013050D03*
X0084300Y0013050D03*
X0074300Y0066800D03*
X0074300Y0076800D03*
X0074300Y0086800D03*
X0193800Y0086800D03*
X0193800Y0076800D03*
X0193800Y0066800D03*
X0193800Y0096800D03*
X0193800Y0106800D03*
X0193800Y0116800D03*
X0193800Y0126800D03*
X0193800Y0136800D03*
D17*
X0121900Y0140550D02*
X0116700Y0140550D01*
X0116700Y0130550D02*
X0121900Y0130550D01*
X0121900Y0120550D02*
X0116700Y0120550D01*
X0116700Y0110550D02*
X0121900Y0110550D01*
X0121900Y0100550D02*
X0116700Y0100550D01*
X0116700Y0090550D02*
X0121900Y0090550D01*
X0121900Y0080550D02*
X0116700Y0080550D01*
X0116700Y0070550D02*
X0121900Y0070550D01*
X0121900Y0060550D02*
X0116700Y0060550D01*
X0116700Y0050550D02*
X0121900Y0050550D01*
X0121900Y0040550D02*
X0116700Y0040550D01*
X0116700Y0030550D02*
X0121900Y0030550D01*
X0091900Y0030550D02*
X0086700Y0030550D01*
X0086700Y0040550D02*
X0091900Y0040550D01*
X0091900Y0050550D02*
X0086700Y0050550D01*
X0086700Y0060550D02*
X0091900Y0060550D01*
X0091900Y0070550D02*
X0086700Y0070550D01*
X0086700Y0080550D02*
X0091900Y0080550D01*
X0091900Y0090550D02*
X0086700Y0090550D01*
X0086700Y0100550D02*
X0091900Y0100550D01*
X0091900Y0110550D02*
X0086700Y0110550D01*
X0086700Y0120550D02*
X0091900Y0120550D01*
X0091900Y0130550D02*
X0086700Y0130550D01*
X0086700Y0140550D02*
X0091900Y0140550D01*
X0091900Y0150550D02*
X0086700Y0150550D01*
X0086700Y0160550D02*
X0091900Y0160550D01*
X0116700Y0160550D02*
X0121900Y0160550D01*
X0121900Y0150550D02*
X0116700Y0150550D01*
M02*
