G75*
%MOIN*%
%OFA0B0*%
%FSLAX25Y25*%
%IPPOS*%
%LPD*%
%AMOC8*
5,1,8,0,0,1.08239X$1,22.5*
%
%ADD10C,0.00000*%
%ADD11OC8,0.05200*%
%ADD12C,0.05200*%
%ADD13C,0.05150*%
%ADD14C,0.11220*%
%ADD15C,0.05937*%
%ADD16C,0.07400*%
%ADD17C,0.05200*%
%ADD18C,0.01600*%
%ADD19C,0.03562*%
D10*
X0001800Y0001800D02*
X0001800Y0198650D01*
X0198650Y0198650D01*
X0198650Y0001800D01*
X0001800Y0001800D01*
D11*
X0043050Y0035550D03*
X0060550Y0026800D03*
X0060550Y0066800D03*
X0043050Y0075550D03*
X0100550Y0013050D03*
X0110550Y0013050D03*
X0119300Y0010550D03*
X0159300Y0010550D03*
X0170550Y0013050D03*
X0180550Y0013050D03*
X0191800Y0013050D03*
X0191800Y0053050D03*
X0138050Y0100550D03*
X0165550Y0146800D03*
X0170550Y0173050D03*
X0170550Y0183050D03*
X0185550Y0183050D03*
X0185550Y0173050D03*
X0155550Y0173050D03*
X0155550Y0183050D03*
X0141800Y0183050D03*
X0141800Y0173050D03*
X0119300Y0183050D03*
X0114300Y0190550D03*
X0109300Y0183050D03*
D12*
X0185550Y0146800D03*
X0138050Y0080550D03*
D13*
X0073424Y0185550D03*
X0065550Y0185550D03*
X0057676Y0185550D03*
X0030599Y0166721D03*
X0027450Y0171446D03*
X0024300Y0166721D03*
X0021150Y0171446D03*
X0018001Y0166721D03*
D14*
X0009930Y0186800D03*
X0038670Y0186800D03*
D15*
X0049802Y0185550D03*
X0081298Y0185550D03*
D16*
X0006800Y0136800D03*
X0006800Y0126800D03*
X0006800Y0116800D03*
X0006800Y0106800D03*
X0006800Y0096800D03*
X0006800Y0086800D03*
X0006800Y0076800D03*
X0006800Y0066800D03*
X0006800Y0056800D03*
X0006800Y0046800D03*
X0006800Y0036800D03*
X0006800Y0026800D03*
X0006800Y0016800D03*
X0023050Y0013050D03*
X0043050Y0013050D03*
X0064300Y0013050D03*
X0084300Y0013050D03*
X0074300Y0066800D03*
X0074300Y0076800D03*
X0074300Y0086800D03*
X0193800Y0086800D03*
X0193800Y0076800D03*
X0193800Y0066800D03*
X0193800Y0096800D03*
X0193800Y0106800D03*
X0193800Y0116800D03*
X0193800Y0126800D03*
X0193800Y0136800D03*
D17*
X0121900Y0140550D02*
X0116700Y0140550D01*
X0116700Y0130550D02*
X0121900Y0130550D01*
X0121900Y0120550D02*
X0116700Y0120550D01*
X0116700Y0110550D02*
X0121900Y0110550D01*
X0121900Y0100550D02*
X0116700Y0100550D01*
X0116700Y0090550D02*
X0121900Y0090550D01*
X0121900Y0080550D02*
X0116700Y0080550D01*
X0116700Y0070550D02*
X0121900Y0070550D01*
X0121900Y0060550D02*
X0116700Y0060550D01*
X0116700Y0050550D02*
X0121900Y0050550D01*
X0121900Y0040550D02*
X0116700Y0040550D01*
X0116700Y0030550D02*
X0121900Y0030550D01*
X0091900Y0030550D02*
X0086700Y0030550D01*
X0086700Y0040550D02*
X0091900Y0040550D01*
X0091900Y0050550D02*
X0086700Y0050550D01*
X0086700Y0060550D02*
X0091900Y0060550D01*
X0091900Y0070550D02*
X0086700Y0070550D01*
X0086700Y0080550D02*
X0091900Y0080550D01*
X0091900Y0090550D02*
X0086700Y0090550D01*
X0086700Y0100550D02*
X0091900Y0100550D01*
X0091900Y0110550D02*
X0086700Y0110550D01*
X0086700Y0120550D02*
X0091900Y0120550D01*
X0091900Y0130550D02*
X0086700Y0130550D01*
X0086700Y0140550D02*
X0091900Y0140550D01*
X0091900Y0150550D02*
X0086700Y0150550D01*
X0086700Y0160550D02*
X0091900Y0160550D01*
X0116700Y0160550D02*
X0121900Y0160550D01*
X0121900Y0150550D02*
X0116700Y0150550D01*
D18*
X0113586Y0153659D02*
X0100108Y0153659D01*
X0099933Y0153731D02*
X0098667Y0153731D01*
X0098033Y0153468D01*
X0095840Y0155661D01*
X0094551Y0156950D01*
X0093661Y0156950D01*
X0094166Y0157159D01*
X0095291Y0158284D01*
X0095900Y0159754D01*
X0095900Y0161346D01*
X0095291Y0162816D01*
X0094166Y0163941D01*
X0092696Y0164550D01*
X0085904Y0164550D01*
X0084434Y0163941D01*
X0083309Y0162816D01*
X0082700Y0161346D01*
X0082700Y0159754D01*
X0083309Y0158284D01*
X0084434Y0157159D01*
X0084939Y0156950D01*
X0034836Y0156950D01*
X0030250Y0162746D01*
X0031390Y0162746D01*
X0032851Y0163352D01*
X0033969Y0164470D01*
X0034574Y0165931D01*
X0034574Y0167512D01*
X0033969Y0168973D01*
X0033696Y0169246D01*
X0091243Y0169246D01*
X0098619Y0161870D01*
X0098619Y0161167D01*
X0099103Y0159998D01*
X0099998Y0159103D01*
X0101167Y0158619D01*
X0102433Y0158619D01*
X0103602Y0159103D01*
X0104497Y0159998D01*
X0104981Y0161167D01*
X0104981Y0162433D01*
X0104497Y0163602D01*
X0103602Y0164497D01*
X0102433Y0164981D01*
X0101730Y0164981D01*
X0093066Y0173646D01*
X0030841Y0173646D01*
X0030819Y0173697D01*
X0029701Y0174815D01*
X0028240Y0175420D01*
X0026659Y0175420D01*
X0025198Y0174815D01*
X0024300Y0173917D01*
X0023402Y0174815D01*
X0021941Y0175420D01*
X0020360Y0175420D01*
X0018899Y0174815D01*
X0017781Y0173697D01*
X0017176Y0172236D01*
X0017176Y0171020D01*
X0016976Y0170988D01*
X0016321Y0170776D01*
X0015708Y0170463D01*
X0015151Y0170058D01*
X0014664Y0169571D01*
X0014259Y0169014D01*
X0013946Y0168401D01*
X0013734Y0167746D01*
X0013626Y0167066D01*
X0013626Y0166721D01*
X0013626Y0166377D01*
X0013734Y0165697D01*
X0013946Y0165042D01*
X0014259Y0164428D01*
X0014664Y0163871D01*
X0015151Y0163384D01*
X0015708Y0162980D01*
X0016321Y0162667D01*
X0016976Y0162454D01*
X0017656Y0162346D01*
X0018001Y0162346D01*
X0018345Y0162346D01*
X0019025Y0162454D01*
X0019680Y0162667D01*
X0020294Y0162980D01*
X0020851Y0163384D01*
X0021338Y0163871D01*
X0021418Y0163982D01*
X0022048Y0163352D01*
X0023509Y0162746D01*
X0024639Y0162746D01*
X0031571Y0153985D01*
X0031571Y0153839D01*
X0032125Y0153285D01*
X0032548Y0152750D01*
X0024639Y0152750D01*
X0023350Y0151461D01*
X0011257Y0139368D01*
X0011124Y0139689D01*
X0009689Y0141124D01*
X0007814Y0141900D01*
X0005786Y0141900D01*
X0003911Y0141124D01*
X0003600Y0140812D01*
X0003600Y0183763D01*
X0003987Y0182829D01*
X0005959Y0180857D01*
X0008535Y0179790D01*
X0011324Y0179790D01*
X0013901Y0180857D01*
X0015873Y0182829D01*
X0016940Y0185406D01*
X0016940Y0188194D01*
X0015873Y0190771D01*
X0013901Y0192743D01*
X0011324Y0193810D01*
X0008535Y0193810D01*
X0005959Y0192743D01*
X0003987Y0190771D01*
X0003600Y0189837D01*
X0003600Y0196850D01*
X0196850Y0196850D01*
X0196850Y0140962D01*
X0196689Y0141124D01*
X0194814Y0141900D01*
X0192786Y0141900D01*
X0190911Y0141124D01*
X0189476Y0139689D01*
X0189191Y0139000D01*
X0183961Y0139000D01*
X0181500Y0141461D01*
X0180211Y0142750D01*
X0167723Y0142750D01*
X0169950Y0144977D01*
X0169950Y0146800D01*
X0169950Y0148623D01*
X0167373Y0151200D01*
X0165550Y0151200D01*
X0165550Y0146800D01*
X0165550Y0146800D01*
X0169950Y0146800D01*
X0165550Y0146800D01*
X0165550Y0146800D01*
X0165550Y0146800D01*
X0161150Y0146800D01*
X0161150Y0148623D01*
X0163727Y0151200D01*
X0165550Y0151200D01*
X0165550Y0146800D01*
X0161150Y0146800D01*
X0161150Y0144977D01*
X0163377Y0142750D01*
X0125318Y0142750D01*
X0125291Y0142816D01*
X0124166Y0143941D01*
X0122696Y0144550D01*
X0115904Y0144550D01*
X0114434Y0143941D01*
X0113309Y0142816D01*
X0112700Y0141346D01*
X0112700Y0139754D01*
X0113309Y0138284D01*
X0114434Y0137159D01*
X0115904Y0136550D01*
X0122696Y0136550D01*
X0124166Y0137159D01*
X0125291Y0138284D01*
X0125318Y0138350D01*
X0178389Y0138350D01*
X0182139Y0134600D01*
X0189191Y0134600D01*
X0189476Y0133911D01*
X0190911Y0132476D01*
X0192544Y0131800D01*
X0190911Y0131124D01*
X0189476Y0129689D01*
X0189191Y0129000D01*
X0183961Y0129000D01*
X0181500Y0131461D01*
X0180211Y0132750D01*
X0125318Y0132750D01*
X0125291Y0132816D01*
X0124166Y0133941D01*
X0122696Y0134550D01*
X0115904Y0134550D01*
X0114434Y0133941D01*
X0113309Y0132816D01*
X0112700Y0131346D01*
X0112700Y0129754D01*
X0113309Y0128284D01*
X0114434Y0127159D01*
X0115904Y0126550D01*
X0122696Y0126550D01*
X0124166Y0127159D01*
X0125291Y0128284D01*
X0125318Y0128350D01*
X0178389Y0128350D01*
X0182139Y0124600D01*
X0189191Y0124600D01*
X0189476Y0123911D01*
X0190911Y0122476D01*
X0192544Y0121800D01*
X0190911Y0121124D01*
X0189476Y0119689D01*
X0189191Y0119000D01*
X0183961Y0119000D01*
X0181500Y0121461D01*
X0180211Y0122750D01*
X0125318Y0122750D01*
X0125291Y0122816D01*
X0124166Y0123941D01*
X0122696Y0124550D01*
X0115904Y0124550D01*
X0114434Y0123941D01*
X0113309Y0122816D01*
X0112700Y0121346D01*
X0112700Y0119754D01*
X0113309Y0118284D01*
X0114434Y0117159D01*
X0115904Y0116550D01*
X0122696Y0116550D01*
X0124166Y0117159D01*
X0125291Y0118284D01*
X0125318Y0118350D01*
X0178389Y0118350D01*
X0182139Y0114600D01*
X0189191Y0114600D01*
X0189476Y0113911D01*
X0190911Y0112476D01*
X0192544Y0111800D01*
X0190911Y0111124D01*
X0189476Y0109689D01*
X0189191Y0109000D01*
X0182139Y0109000D01*
X0180850Y0107711D01*
X0135889Y0062750D01*
X0125318Y0062750D01*
X0125291Y0062816D01*
X0124166Y0063941D01*
X0122696Y0064550D01*
X0115904Y0064550D01*
X0114434Y0063941D01*
X0113309Y0062816D01*
X0112700Y0061346D01*
X0112700Y0059754D01*
X0113309Y0058284D01*
X0114434Y0057159D01*
X0115904Y0056550D01*
X0122696Y0056550D01*
X0124166Y0057159D01*
X0125291Y0058284D01*
X0125318Y0058350D01*
X0137711Y0058350D01*
X0139000Y0059639D01*
X0183961Y0104600D01*
X0189191Y0104600D01*
X0189476Y0103911D01*
X0190911Y0102476D01*
X0192544Y0101800D01*
X0190911Y0101124D01*
X0189476Y0099689D01*
X0189191Y0099000D01*
X0182139Y0099000D01*
X0180850Y0097711D01*
X0135889Y0052750D01*
X0125318Y0052750D01*
X0125291Y0052816D01*
X0124166Y0053941D01*
X0122696Y0054550D01*
X0115904Y0054550D01*
X0114434Y0053941D01*
X0113309Y0052816D01*
X0112700Y0051346D01*
X0112700Y0049754D01*
X0113309Y0048284D01*
X0114434Y0047159D01*
X0115904Y0046550D01*
X0122696Y0046550D01*
X0124166Y0047159D01*
X0125291Y0048284D01*
X0125318Y0048350D01*
X0137711Y0048350D01*
X0183961Y0094600D01*
X0189191Y0094600D01*
X0189476Y0093911D01*
X0190911Y0092476D01*
X0192544Y0091800D01*
X0190911Y0091124D01*
X0189476Y0089689D01*
X0189191Y0089000D01*
X0183389Y0089000D01*
X0182100Y0087711D01*
X0137139Y0042750D01*
X0125318Y0042750D01*
X0125291Y0042816D01*
X0124166Y0043941D01*
X0122696Y0044550D01*
X0115904Y0044550D01*
X0114434Y0043941D01*
X0113309Y0042816D01*
X0112700Y0041346D01*
X0112700Y0039754D01*
X0113309Y0038284D01*
X0114434Y0037159D01*
X0115904Y0036550D01*
X0122696Y0036550D01*
X0124166Y0037159D01*
X0125291Y0038284D01*
X0125318Y0038350D01*
X0138961Y0038350D01*
X0140250Y0039639D01*
X0185211Y0084600D01*
X0189191Y0084600D01*
X0189476Y0083911D01*
X0190911Y0082476D01*
X0192544Y0081800D01*
X0190911Y0081124D01*
X0189476Y0079689D01*
X0189191Y0079000D01*
X0187849Y0079000D01*
X0187352Y0079497D01*
X0186183Y0079981D01*
X0184917Y0079981D01*
X0183748Y0079497D01*
X0182853Y0078602D01*
X0182369Y0077433D01*
X0182369Y0076730D01*
X0138389Y0032750D01*
X0125318Y0032750D01*
X0125291Y0032816D01*
X0124166Y0033941D01*
X0122696Y0034550D01*
X0115904Y0034550D01*
X0114434Y0033941D01*
X0113309Y0032816D01*
X0112700Y0031346D01*
X0112700Y0029754D01*
X0113309Y0028284D01*
X0114434Y0027159D01*
X0115904Y0026550D01*
X0122696Y0026550D01*
X0124166Y0027159D01*
X0125291Y0028284D01*
X0125318Y0028350D01*
X0140211Y0028350D01*
X0185480Y0073619D01*
X0186183Y0073619D01*
X0187352Y0074103D01*
X0187849Y0074600D01*
X0189191Y0074600D01*
X0189476Y0073911D01*
X0190911Y0072476D01*
X0192037Y0072010D01*
X0191689Y0071897D01*
X0190917Y0071504D01*
X0190217Y0070995D01*
X0189605Y0070383D01*
X0189096Y0069683D01*
X0188703Y0068911D01*
X0188435Y0068088D01*
X0188300Y0067233D01*
X0188300Y0067000D01*
X0193600Y0067000D01*
X0193600Y0066600D01*
X0194000Y0066600D01*
X0194000Y0061300D01*
X0194233Y0061300D01*
X0195088Y0061435D01*
X0195911Y0061703D01*
X0196683Y0062096D01*
X0196850Y0062218D01*
X0196850Y0003600D01*
X0003600Y0003600D01*
X0003600Y0012788D01*
X0003911Y0012476D01*
X0005786Y0011700D01*
X0007814Y0011700D01*
X0009689Y0012476D01*
X0011124Y0013911D01*
X0011900Y0015786D01*
X0011900Y0017539D01*
X0035480Y0041119D01*
X0036183Y0041119D01*
X0037352Y0041603D01*
X0038247Y0042498D01*
X0038731Y0043667D01*
X0038731Y0044933D01*
X0038247Y0046102D01*
X0037352Y0046997D01*
X0036183Y0047481D01*
X0034917Y0047481D01*
X0033748Y0046997D01*
X0032853Y0046102D01*
X0032369Y0044933D01*
X0032369Y0044230D01*
X0009387Y0021249D01*
X0008056Y0021800D01*
X0009689Y0022476D01*
X0011124Y0023911D01*
X0011900Y0025786D01*
X0011900Y0027814D01*
X0011124Y0029689D01*
X0009689Y0031124D01*
X0008563Y0031590D01*
X0008911Y0031703D01*
X0009683Y0032096D01*
X0010383Y0032605D01*
X0010995Y0033217D01*
X0011504Y0033917D01*
X0011897Y0034689D01*
X0012165Y0035512D01*
X0012300Y0036367D01*
X0012300Y0036600D01*
X0007000Y0036600D01*
X0007000Y0037000D01*
X0012300Y0037000D01*
X0012300Y0037233D01*
X0012165Y0038088D01*
X0011897Y0038911D01*
X0011504Y0039683D01*
X0010995Y0040383D01*
X0010383Y0040995D01*
X0009683Y0041504D01*
X0008911Y0041897D01*
X0008563Y0042010D01*
X0009689Y0042476D01*
X0011124Y0043911D01*
X0011900Y0045786D01*
X0011900Y0047814D01*
X0011124Y0049689D01*
X0009689Y0051124D01*
X0008056Y0051800D01*
X0009689Y0052476D01*
X0011124Y0053911D01*
X0011409Y0054600D01*
X0015889Y0054600D01*
X0017690Y0052799D01*
X0017538Y0052433D01*
X0017538Y0051167D01*
X0018022Y0049998D01*
X0018355Y0049665D01*
X0017498Y0050020D01*
X0016233Y0050020D01*
X0015064Y0049536D01*
X0014169Y0048641D01*
X0013684Y0047472D01*
X0013684Y0046206D01*
X0014169Y0045037D01*
X0015064Y0044142D01*
X0016233Y0043658D01*
X0017498Y0043658D01*
X0018668Y0044142D01*
X0019562Y0045037D01*
X0020047Y0046206D01*
X0020047Y0047472D01*
X0019562Y0048641D01*
X0019229Y0048974D01*
X0020086Y0048619D01*
X0021352Y0048619D01*
X0022521Y0049103D01*
X0023416Y0049998D01*
X0023632Y0050521D01*
X0024000Y0050889D01*
X0024000Y0052711D01*
X0023632Y0053079D01*
X0023416Y0053602D01*
X0022521Y0054497D01*
X0021998Y0054713D01*
X0017711Y0059000D01*
X0011409Y0059000D01*
X0011124Y0059689D01*
X0009689Y0061124D01*
X0008563Y0061590D01*
X0008911Y0061703D01*
X0009683Y0062096D01*
X0010383Y0062605D01*
X0010995Y0063217D01*
X0011504Y0063917D01*
X0011897Y0064689D01*
X0012165Y0065512D01*
X0012300Y0066367D01*
X0012300Y0066600D01*
X0007000Y0066600D01*
X0007000Y0067000D01*
X0012300Y0067000D01*
X0012300Y0067233D01*
X0012165Y0068088D01*
X0011897Y0068911D01*
X0011504Y0069683D01*
X0010995Y0070383D01*
X0010383Y0070995D01*
X0009683Y0071504D01*
X0008911Y0071897D01*
X0008563Y0072010D01*
X0009689Y0072476D01*
X0011124Y0073911D01*
X0011409Y0074600D01*
X0017995Y0074600D01*
X0039414Y0073529D01*
X0041393Y0071550D01*
X0044707Y0071550D01*
X0047050Y0073893D01*
X0047050Y0077207D01*
X0044707Y0079550D01*
X0041393Y0079550D01*
X0039760Y0077917D01*
X0019006Y0078955D01*
X0018961Y0079000D01*
X0018105Y0079000D01*
X0017250Y0079043D01*
X0017202Y0079000D01*
X0011409Y0079000D01*
X0011124Y0079689D01*
X0009962Y0080850D01*
X0040751Y0080850D01*
X0041248Y0080353D01*
X0042417Y0079869D01*
X0043683Y0079869D01*
X0044852Y0080353D01*
X0045747Y0081248D01*
X0046231Y0082417D01*
X0046231Y0083683D01*
X0045747Y0084852D01*
X0044852Y0085747D01*
X0043683Y0086231D01*
X0042417Y0086231D01*
X0041248Y0085747D01*
X0040751Y0085250D01*
X0027101Y0085250D01*
X0027481Y0086167D01*
X0027481Y0087433D01*
X0026997Y0088602D01*
X0026102Y0089497D01*
X0024933Y0089981D01*
X0023667Y0089981D01*
X0023181Y0089780D01*
X0013961Y0099000D01*
X0011409Y0099000D01*
X0011124Y0099689D01*
X0009689Y0101124D01*
X0008056Y0101800D01*
X0009689Y0102476D01*
X0011124Y0103911D01*
X0011257Y0104232D01*
X0015850Y0099639D01*
X0017139Y0098350D01*
X0083282Y0098350D01*
X0083309Y0098284D01*
X0084434Y0097159D01*
X0085904Y0096550D01*
X0092696Y0096550D01*
X0094166Y0097159D01*
X0095291Y0098284D01*
X0095900Y0099754D01*
X0095900Y0101346D01*
X0095291Y0102816D01*
X0094166Y0103941D01*
X0092696Y0104550D01*
X0085904Y0104550D01*
X0084434Y0103941D01*
X0083309Y0102816D01*
X0083282Y0102750D01*
X0018961Y0102750D01*
X0012711Y0109000D01*
X0011409Y0109000D01*
X0011124Y0109689D01*
X0009689Y0111124D01*
X0008056Y0111800D01*
X0009689Y0112476D01*
X0011124Y0113911D01*
X0011257Y0114232D01*
X0015850Y0109639D01*
X0017139Y0108350D01*
X0083282Y0108350D01*
X0083309Y0108284D01*
X0084434Y0107159D01*
X0085904Y0106550D01*
X0092696Y0106550D01*
X0094166Y0107159D01*
X0095291Y0108284D01*
X0095900Y0109754D01*
X0095900Y0111346D01*
X0095291Y0112816D01*
X0094166Y0113941D01*
X0092696Y0114550D01*
X0085904Y0114550D01*
X0084434Y0113941D01*
X0083309Y0112816D01*
X0083282Y0112750D01*
X0018961Y0112750D01*
X0012711Y0119000D01*
X0011409Y0119000D01*
X0011124Y0119689D01*
X0009689Y0121124D01*
X0008056Y0121800D01*
X0009689Y0122476D01*
X0011124Y0123911D01*
X0011409Y0124600D01*
X0012711Y0124600D01*
X0026461Y0138350D01*
X0083282Y0138350D01*
X0083309Y0138284D01*
X0084434Y0137159D01*
X0085904Y0136550D01*
X0092696Y0136550D01*
X0094166Y0137159D01*
X0095291Y0138284D01*
X0095900Y0139754D01*
X0095900Y0141346D01*
X0095291Y0142816D01*
X0094166Y0143941D01*
X0092696Y0144550D01*
X0085904Y0144550D01*
X0084434Y0143941D01*
X0083309Y0142816D01*
X0083282Y0142750D01*
X0024639Y0142750D01*
X0023350Y0141461D01*
X0011257Y0129368D01*
X0011124Y0129689D01*
X0009689Y0131124D01*
X0008056Y0131800D01*
X0009689Y0132476D01*
X0011124Y0133911D01*
X0011409Y0134600D01*
X0012711Y0134600D01*
X0026461Y0148350D01*
X0083282Y0148350D01*
X0083309Y0148284D01*
X0084434Y0147159D01*
X0085904Y0146550D01*
X0092696Y0146550D01*
X0094166Y0147159D01*
X0095291Y0148284D01*
X0095790Y0149489D01*
X0096928Y0148350D01*
X0097001Y0148350D01*
X0097498Y0147853D01*
X0098667Y0147369D01*
X0099933Y0147369D01*
X0101102Y0147853D01*
X0101997Y0148748D01*
X0102481Y0149917D01*
X0102481Y0151183D01*
X0101997Y0152352D01*
X0101102Y0153247D01*
X0099933Y0153731D01*
X0098492Y0153659D02*
X0097842Y0153659D01*
X0096244Y0155257D02*
X0183350Y0155257D01*
X0183350Y0153659D02*
X0125014Y0153659D01*
X0125256Y0153416D02*
X0124766Y0153906D01*
X0124206Y0154313D01*
X0123589Y0154628D01*
X0122930Y0154842D01*
X0122246Y0154950D01*
X0119300Y0154950D01*
X0119300Y0150550D01*
X0119300Y0150550D01*
X0126300Y0150550D01*
X0126300Y0150896D01*
X0126192Y0151580D01*
X0125978Y0152239D01*
X0125663Y0152856D01*
X0125256Y0153416D01*
X0126036Y0152060D02*
X0183350Y0152060D01*
X0183350Y0150462D02*
X0168111Y0150462D01*
X0169709Y0148863D02*
X0182075Y0148863D01*
X0182159Y0149066D02*
X0181550Y0147596D01*
X0181550Y0146004D01*
X0182159Y0144534D01*
X0183284Y0143409D01*
X0184754Y0142800D01*
X0186346Y0142800D01*
X0187816Y0143409D01*
X0188941Y0144534D01*
X0189550Y0146004D01*
X0189550Y0147596D01*
X0188941Y0149066D01*
X0187816Y0150191D01*
X0187750Y0150218D01*
X0187750Y0169593D01*
X0189550Y0171393D01*
X0189550Y0174707D01*
X0187207Y0177050D01*
X0184661Y0177050D01*
X0181950Y0179761D01*
X0180661Y0181050D01*
X0174207Y0181050D01*
X0174550Y0181393D01*
X0174550Y0184707D01*
X0172207Y0187050D01*
X0169661Y0187050D01*
X0163961Y0192750D01*
X0117757Y0192750D01*
X0115957Y0194550D01*
X0112643Y0194550D01*
X0110843Y0192750D01*
X0105889Y0192750D01*
X0104600Y0191461D01*
X0093389Y0180250D01*
X0077711Y0180250D01*
X0075728Y0182233D01*
X0076794Y0183298D01*
X0077148Y0184154D01*
X0077595Y0183075D01*
X0078823Y0181847D01*
X0080429Y0181181D01*
X0082167Y0181181D01*
X0083773Y0181847D01*
X0085001Y0183075D01*
X0085667Y0184681D01*
X0085667Y0186419D01*
X0085001Y0188025D01*
X0083773Y0189253D01*
X0082167Y0189918D01*
X0080429Y0189918D01*
X0078823Y0189253D01*
X0077595Y0188025D01*
X0077148Y0186946D01*
X0076794Y0187802D01*
X0075676Y0188920D01*
X0074215Y0189525D01*
X0072633Y0189525D01*
X0071172Y0188920D01*
X0070054Y0187802D01*
X0069487Y0186432D01*
X0068920Y0187802D01*
X0067802Y0188920D01*
X0066341Y0189525D01*
X0064759Y0189525D01*
X0063298Y0188920D01*
X0062180Y0187802D01*
X0061613Y0186432D01*
X0061046Y0187802D01*
X0059928Y0188920D01*
X0058467Y0189525D01*
X0056885Y0189525D01*
X0055424Y0188920D01*
X0054306Y0187802D01*
X0053952Y0186946D01*
X0053505Y0188025D01*
X0052277Y0189253D01*
X0050671Y0189918D01*
X0048933Y0189918D01*
X0047327Y0189253D01*
X0046099Y0188025D01*
X0045680Y0187015D01*
X0045680Y0188194D01*
X0044613Y0190771D01*
X0042641Y0192743D01*
X0040064Y0193810D01*
X0037276Y0193810D01*
X0034699Y0192743D01*
X0032727Y0190771D01*
X0031660Y0188194D01*
X0031660Y0185406D01*
X0032727Y0182829D01*
X0034699Y0180857D01*
X0037276Y0179790D01*
X0040064Y0179790D01*
X0042641Y0180857D01*
X0044613Y0182829D01*
X0045433Y0184810D01*
X0045433Y0184681D01*
X0046099Y0183075D01*
X0047327Y0181847D01*
X0048933Y0181181D01*
X0050671Y0181181D01*
X0052277Y0181847D01*
X0053505Y0183075D01*
X0053952Y0184154D01*
X0054306Y0183298D01*
X0055424Y0182180D01*
X0056885Y0181575D01*
X0058467Y0181575D01*
X0059928Y0182180D01*
X0061046Y0183298D01*
X0061613Y0184668D01*
X0062180Y0183298D01*
X0063298Y0182180D01*
X0064759Y0181575D01*
X0066341Y0181575D01*
X0067802Y0182180D01*
X0068920Y0183298D01*
X0069487Y0184668D01*
X0070054Y0183298D01*
X0071172Y0182180D01*
X0071224Y0182159D01*
X0071224Y0180515D01*
X0074600Y0177139D01*
X0075889Y0175850D01*
X0095211Y0175850D01*
X0096500Y0177139D01*
X0107711Y0188350D01*
X0110843Y0188350D01*
X0112643Y0186550D01*
X0115957Y0186550D01*
X0117757Y0188350D01*
X0162139Y0188350D01*
X0165239Y0185250D01*
X0159007Y0185250D01*
X0157207Y0187050D01*
X0153893Y0187050D01*
X0152093Y0185250D01*
X0145257Y0185250D01*
X0143457Y0187050D01*
X0140143Y0187050D01*
X0138343Y0185250D01*
X0122757Y0185250D01*
X0120957Y0187050D01*
X0117643Y0187050D01*
X0115300Y0184707D01*
X0115300Y0181393D01*
X0117100Y0179593D01*
X0117100Y0164550D01*
X0115904Y0164550D01*
X0114434Y0163941D01*
X0113309Y0162816D01*
X0112700Y0161346D01*
X0112700Y0159754D01*
X0113309Y0158284D01*
X0114434Y0157159D01*
X0115904Y0156550D01*
X0122696Y0156550D01*
X0124166Y0157159D01*
X0125291Y0158284D01*
X0125900Y0159754D01*
X0125900Y0161346D01*
X0125291Y0162816D01*
X0124166Y0163941D01*
X0122696Y0164550D01*
X0121500Y0164550D01*
X0121500Y0179593D01*
X0122757Y0180850D01*
X0138343Y0180850D01*
X0140143Y0179050D01*
X0143457Y0179050D01*
X0145257Y0180850D01*
X0152093Y0180850D01*
X0153893Y0179050D01*
X0157207Y0179050D01*
X0159007Y0180850D01*
X0163699Y0180850D01*
X0166610Y0177939D01*
X0167899Y0176650D01*
X0167927Y0176650D01*
X0166150Y0174873D01*
X0166150Y0173050D01*
X0170550Y0173050D01*
X0174950Y0173050D01*
X0174950Y0174873D01*
X0173173Y0176650D01*
X0178839Y0176650D01*
X0181550Y0173939D01*
X0181550Y0171393D01*
X0183350Y0169593D01*
X0183350Y0150218D01*
X0183284Y0150191D01*
X0182159Y0149066D01*
X0181550Y0147265D02*
X0169950Y0147265D01*
X0169950Y0145666D02*
X0181690Y0145666D01*
X0182626Y0144068D02*
X0169040Y0144068D01*
X0165550Y0147265D02*
X0165550Y0147265D01*
X0165550Y0148863D02*
X0165550Y0148863D01*
X0165550Y0150462D02*
X0165550Y0150462D01*
X0162989Y0150462D02*
X0126300Y0150462D01*
X0126300Y0150550D02*
X0119300Y0150550D01*
X0119300Y0150550D01*
X0119300Y0146150D01*
X0122246Y0146150D01*
X0122930Y0146258D01*
X0123589Y0146472D01*
X0124206Y0146787D01*
X0124766Y0147194D01*
X0125256Y0147684D01*
X0125663Y0148244D01*
X0125978Y0148861D01*
X0126192Y0149520D01*
X0126300Y0150204D01*
X0126300Y0150550D01*
X0125978Y0148863D02*
X0161391Y0148863D01*
X0161150Y0147265D02*
X0124837Y0147265D01*
X0123860Y0144068D02*
X0162060Y0144068D01*
X0161150Y0145666D02*
X0023777Y0145666D01*
X0022179Y0144068D02*
X0084740Y0144068D01*
X0084329Y0147265D02*
X0025376Y0147265D01*
X0025550Y0150550D02*
X0089300Y0150550D01*
X0093640Y0154750D02*
X0033771Y0154750D01*
X0024300Y0166721D01*
X0022295Y0163250D02*
X0020665Y0163250D01*
X0018001Y0163250D02*
X0018001Y0163250D01*
X0018001Y0162346D02*
X0018001Y0166721D01*
X0018001Y0166721D01*
X0018001Y0162346D01*
X0015336Y0163250D02*
X0003600Y0163250D01*
X0003600Y0164848D02*
X0014045Y0164848D01*
X0013626Y0166447D02*
X0003600Y0166447D01*
X0003600Y0168045D02*
X0013831Y0168045D01*
X0013626Y0166721D02*
X0018001Y0166721D01*
X0013626Y0166721D01*
X0014736Y0169644D02*
X0003600Y0169644D01*
X0003600Y0171242D02*
X0017176Y0171242D01*
X0017426Y0172841D02*
X0003600Y0172841D01*
X0003600Y0174439D02*
X0018523Y0174439D01*
X0023778Y0174439D02*
X0024822Y0174439D01*
X0027450Y0171446D02*
X0092154Y0171446D01*
X0101800Y0161800D01*
X0098619Y0161651D02*
X0095773Y0161651D01*
X0095900Y0160053D02*
X0099081Y0160053D01*
X0097239Y0163250D02*
X0094857Y0163250D01*
X0095641Y0164848D02*
X0034126Y0164848D01*
X0034574Y0166447D02*
X0094042Y0166447D01*
X0092444Y0168045D02*
X0034353Y0168045D01*
X0032605Y0163250D02*
X0083743Y0163250D01*
X0082827Y0161651D02*
X0031117Y0161651D01*
X0032381Y0160053D02*
X0082700Y0160053D01*
X0083239Y0158454D02*
X0033646Y0158454D01*
X0030565Y0155257D02*
X0003600Y0155257D01*
X0003600Y0153659D02*
X0031751Y0153659D01*
X0029300Y0156856D02*
X0003600Y0156856D01*
X0003600Y0158454D02*
X0028035Y0158454D01*
X0026771Y0160053D02*
X0003600Y0160053D01*
X0003600Y0161651D02*
X0025506Y0161651D01*
X0018001Y0164848D02*
X0018001Y0164848D01*
X0018001Y0166447D02*
X0018001Y0166447D01*
X0018001Y0166721D02*
X0018001Y0166721D01*
X0030077Y0174439D02*
X0117100Y0174439D01*
X0117100Y0172841D02*
X0093871Y0172841D01*
X0095469Y0171242D02*
X0117100Y0171242D01*
X0117100Y0169644D02*
X0097068Y0169644D01*
X0098666Y0168045D02*
X0117100Y0168045D01*
X0117100Y0166447D02*
X0100265Y0166447D01*
X0102754Y0164848D02*
X0117100Y0164848D01*
X0113743Y0163250D02*
X0104643Y0163250D01*
X0104981Y0161651D02*
X0112827Y0161651D01*
X0112700Y0160053D02*
X0104519Y0160053D01*
X0102118Y0152060D02*
X0112564Y0152060D01*
X0112622Y0152239D02*
X0112408Y0151580D01*
X0112300Y0150896D01*
X0112300Y0150550D01*
X0119300Y0150550D01*
X0119300Y0150550D01*
X0119300Y0150550D01*
X0119300Y0154950D01*
X0116354Y0154950D01*
X0115670Y0154842D01*
X0115011Y0154628D01*
X0114394Y0154313D01*
X0113834Y0153906D01*
X0113344Y0153416D01*
X0112937Y0152856D01*
X0112622Y0152239D01*
X0112300Y0150550D02*
X0112300Y0150204D01*
X0112408Y0149520D01*
X0112622Y0148861D01*
X0112937Y0148244D01*
X0113344Y0147684D01*
X0113834Y0147194D01*
X0114394Y0146787D01*
X0115011Y0146472D01*
X0115670Y0146258D01*
X0116354Y0146150D01*
X0119300Y0146150D01*
X0119300Y0150550D01*
X0112300Y0150550D01*
X0112300Y0150462D02*
X0102481Y0150462D01*
X0102044Y0148863D02*
X0112622Y0148863D01*
X0113763Y0147265D02*
X0094271Y0147265D01*
X0095531Y0148863D02*
X0096415Y0148863D01*
X0097840Y0150550D02*
X0093640Y0154750D01*
X0094645Y0156856D02*
X0115167Y0156856D01*
X0113239Y0158454D02*
X0095361Y0158454D01*
X0097840Y0150550D02*
X0099300Y0150550D01*
X0093860Y0144068D02*
X0114740Y0144068D01*
X0113165Y0142469D02*
X0095435Y0142469D01*
X0095900Y0140870D02*
X0112700Y0140870D01*
X0112900Y0139272D02*
X0095700Y0139272D01*
X0094680Y0137673D02*
X0113920Y0137673D01*
X0115727Y0134476D02*
X0092873Y0134476D01*
X0092696Y0134550D02*
X0094166Y0133941D01*
X0095291Y0132816D01*
X0095900Y0131346D01*
X0095900Y0129754D01*
X0095291Y0128284D01*
X0094166Y0127159D01*
X0092696Y0126550D01*
X0085904Y0126550D01*
X0084434Y0127159D01*
X0083309Y0128284D01*
X0082764Y0129600D01*
X0030211Y0129600D01*
X0023731Y0123120D01*
X0023731Y0122417D01*
X0023247Y0121248D01*
X0022352Y0120353D01*
X0021183Y0119869D01*
X0019917Y0119869D01*
X0018748Y0120353D01*
X0017853Y0121248D01*
X0017369Y0122417D01*
X0017369Y0123683D01*
X0017853Y0124852D01*
X0018748Y0125747D01*
X0019917Y0126231D01*
X0020620Y0126231D01*
X0028389Y0134000D01*
X0084577Y0134000D01*
X0085904Y0134550D01*
X0092696Y0134550D01*
X0095229Y0132878D02*
X0113371Y0132878D01*
X0112700Y0131279D02*
X0095900Y0131279D01*
X0095870Y0129681D02*
X0112730Y0129681D01*
X0113511Y0128082D02*
X0095089Y0128082D01*
X0094166Y0123941D02*
X0092696Y0124550D01*
X0085904Y0124550D01*
X0084434Y0123941D01*
X0083309Y0122816D01*
X0083282Y0122750D01*
X0046599Y0122750D01*
X0046102Y0123247D01*
X0044933Y0123731D01*
X0043667Y0123731D01*
X0042498Y0123247D01*
X0041603Y0122352D01*
X0041119Y0121183D01*
X0041119Y0119917D01*
X0041603Y0118748D01*
X0042498Y0117853D01*
X0043667Y0117369D01*
X0044933Y0117369D01*
X0046102Y0117853D01*
X0046599Y0118350D01*
X0083282Y0118350D01*
X0083309Y0118284D01*
X0084434Y0117159D01*
X0085904Y0116550D01*
X0092696Y0116550D01*
X0094166Y0117159D01*
X0095291Y0118284D01*
X0095900Y0119754D01*
X0095900Y0121346D01*
X0095291Y0122816D01*
X0094166Y0123941D01*
X0094820Y0123287D02*
X0113780Y0123287D01*
X0112842Y0121688D02*
X0095758Y0121688D01*
X0095900Y0120090D02*
X0112700Y0120090D01*
X0113223Y0118491D02*
X0095377Y0118491D01*
X0093523Y0116893D02*
X0115077Y0116893D01*
X0115904Y0114550D02*
X0114434Y0113941D01*
X0113309Y0112816D01*
X0112700Y0111346D01*
X0112700Y0109754D01*
X0113309Y0108284D01*
X0114241Y0107352D01*
X0105620Y0098731D01*
X0104917Y0098731D01*
X0103748Y0098247D01*
X0102853Y0097352D01*
X0102369Y0096183D01*
X0102369Y0094917D01*
X0102853Y0093748D01*
X0103748Y0092853D01*
X0104917Y0092369D01*
X0106183Y0092369D01*
X0107352Y0092853D01*
X0108247Y0093748D01*
X0108731Y0094917D01*
X0108731Y0095620D01*
X0112749Y0099637D01*
X0113309Y0098284D01*
X0114434Y0097159D01*
X0115904Y0096550D01*
X0122696Y0096550D01*
X0124166Y0097159D01*
X0125291Y0098284D01*
X0125900Y0099754D01*
X0125900Y0101346D01*
X0125291Y0102816D01*
X0124166Y0103941D01*
X0122696Y0104550D01*
X0117661Y0104550D01*
X0119661Y0106550D01*
X0122696Y0106550D01*
X0124166Y0107159D01*
X0125291Y0108284D01*
X0125900Y0109754D01*
X0125900Y0111346D01*
X0125291Y0112816D01*
X0124166Y0113941D01*
X0122696Y0114550D01*
X0115904Y0114550D01*
X0114189Y0113696D02*
X0094411Y0113696D01*
X0095589Y0112097D02*
X0113011Y0112097D01*
X0112700Y0110499D02*
X0095900Y0110499D01*
X0095546Y0108900D02*
X0113054Y0108900D01*
X0114190Y0107302D02*
X0094309Y0107302D01*
X0093771Y0104105D02*
X0110993Y0104105D01*
X0109395Y0102506D02*
X0095419Y0102506D01*
X0095900Y0100908D02*
X0107796Y0100908D01*
X0106198Y0099309D02*
X0095716Y0099309D01*
X0094718Y0097711D02*
X0103212Y0097711D01*
X0102369Y0096112D02*
X0016849Y0096112D01*
X0018448Y0094514D02*
X0084787Y0094514D01*
X0085011Y0094628D02*
X0084394Y0094313D01*
X0083834Y0093906D01*
X0083344Y0093416D01*
X0082937Y0092856D01*
X0082622Y0092239D01*
X0082408Y0091580D01*
X0082300Y0090896D01*
X0082300Y0090550D01*
X0089300Y0090550D01*
X0089300Y0090550D01*
X0089300Y0094950D01*
X0092246Y0094950D01*
X0092930Y0094842D01*
X0093589Y0094628D01*
X0094206Y0094313D01*
X0094766Y0093906D01*
X0095256Y0093416D01*
X0095663Y0092856D01*
X0095978Y0092239D01*
X0096192Y0091580D01*
X0096300Y0090896D01*
X0096300Y0090550D01*
X0089300Y0090550D01*
X0089300Y0090550D01*
X0089300Y0090550D01*
X0089300Y0094950D01*
X0086354Y0094950D01*
X0085670Y0094842D01*
X0085011Y0094628D01*
X0082980Y0092915D02*
X0020046Y0092915D01*
X0021645Y0091317D02*
X0071877Y0091317D01*
X0071411Y0091124D02*
X0073286Y0091900D01*
X0075314Y0091900D01*
X0077189Y0091124D01*
X0078624Y0089689D01*
X0078909Y0089000D01*
X0082577Y0089000D01*
X0082408Y0089520D01*
X0082300Y0090204D01*
X0082300Y0090550D01*
X0089300Y0090550D01*
X0096300Y0090550D01*
X0096300Y0090204D01*
X0096192Y0089520D01*
X0095978Y0088861D01*
X0095663Y0088244D01*
X0095256Y0087684D01*
X0094766Y0087194D01*
X0094206Y0086787D01*
X0093589Y0086472D01*
X0092930Y0086258D01*
X0092246Y0086150D01*
X0089300Y0086150D01*
X0089300Y0090550D01*
X0089300Y0090550D01*
X0089300Y0086150D01*
X0086811Y0086150D01*
X0088411Y0084550D01*
X0092696Y0084550D01*
X0094166Y0083941D01*
X0095291Y0082816D01*
X0095900Y0081346D01*
X0095900Y0079754D01*
X0095291Y0078284D01*
X0094166Y0077159D01*
X0092696Y0076550D01*
X0085904Y0076550D01*
X0084434Y0077159D01*
X0083309Y0078284D01*
X0082700Y0079754D01*
X0082700Y0081346D01*
X0083309Y0082816D01*
X0083616Y0083123D01*
X0082139Y0084600D01*
X0078909Y0084600D01*
X0078624Y0083911D01*
X0077189Y0082476D01*
X0076063Y0082010D01*
X0076411Y0081897D01*
X0077183Y0081504D01*
X0077883Y0080995D01*
X0078495Y0080383D01*
X0079004Y0079683D01*
X0079397Y0078911D01*
X0079665Y0078088D01*
X0079800Y0077233D01*
X0079800Y0077000D01*
X0074500Y0077000D01*
X0074500Y0076600D01*
X0079800Y0076600D01*
X0079800Y0076367D01*
X0079665Y0075512D01*
X0079397Y0074689D01*
X0079004Y0073917D01*
X0078495Y0073217D01*
X0077883Y0072605D01*
X0077183Y0072096D01*
X0076411Y0071703D01*
X0076063Y0071590D01*
X0077189Y0071124D01*
X0078624Y0069689D01*
X0078909Y0069000D01*
X0083012Y0069000D01*
X0082700Y0069754D01*
X0082700Y0071346D01*
X0083309Y0072816D01*
X0084434Y0073941D01*
X0085904Y0074550D01*
X0092696Y0074550D01*
X0094166Y0073941D01*
X0095291Y0072816D01*
X0095900Y0071346D01*
X0095900Y0069754D01*
X0095291Y0068284D01*
X0094166Y0067159D01*
X0092696Y0066550D01*
X0088411Y0066550D01*
X0086461Y0064600D01*
X0078909Y0064600D01*
X0078624Y0063911D01*
X0078612Y0063900D01*
X0079061Y0063900D01*
X0080350Y0062611D01*
X0082700Y0060261D01*
X0082700Y0061346D01*
X0083309Y0062816D01*
X0084434Y0063941D01*
X0085904Y0064550D01*
X0092696Y0064550D01*
X0094166Y0063941D01*
X0095291Y0062816D01*
X0095900Y0061346D01*
X0095900Y0059754D01*
X0095291Y0058284D01*
X0094166Y0057159D01*
X0092696Y0056550D01*
X0086411Y0056550D01*
X0088411Y0054550D01*
X0092696Y0054550D01*
X0094166Y0053941D01*
X0095291Y0052816D01*
X0095900Y0051346D01*
X0095900Y0049754D01*
X0095588Y0049000D01*
X0102139Y0049000D01*
X0102369Y0049230D01*
X0102369Y0049933D01*
X0102853Y0051102D01*
X0103748Y0051997D01*
X0104917Y0052481D01*
X0106183Y0052481D01*
X0107352Y0051997D01*
X0108247Y0051102D01*
X0108731Y0049933D01*
X0108731Y0048667D01*
X0108247Y0047498D01*
X0107352Y0046603D01*
X0106183Y0046119D01*
X0105480Y0046119D01*
X0103961Y0044600D01*
X0096461Y0044600D01*
X0094984Y0043123D01*
X0095291Y0042816D01*
X0095318Y0042750D01*
X0096461Y0042750D01*
X0116461Y0022750D01*
X0163961Y0022750D01*
X0169661Y0017050D01*
X0172207Y0017050D01*
X0174550Y0014707D01*
X0174550Y0011393D01*
X0172207Y0009050D01*
X0168893Y0009050D01*
X0166550Y0011393D01*
X0166550Y0013939D01*
X0162139Y0018350D01*
X0114639Y0018350D01*
X0113350Y0019639D01*
X0094998Y0037991D01*
X0094166Y0037159D01*
X0092696Y0036550D01*
X0085904Y0036550D01*
X0084434Y0037159D01*
X0083309Y0038284D01*
X0082700Y0039754D01*
X0082700Y0041346D01*
X0083309Y0042816D01*
X0083616Y0043123D01*
X0081540Y0045199D01*
X0061739Y0062800D01*
X0058893Y0062800D01*
X0056550Y0065143D01*
X0056550Y0068457D01*
X0058597Y0070504D01*
X0057853Y0071248D01*
X0057369Y0072417D01*
X0057369Y0073683D01*
X0057853Y0074852D01*
X0058748Y0075747D01*
X0059917Y0076231D01*
X0061183Y0076231D01*
X0062352Y0075747D01*
X0063247Y0074852D01*
X0063731Y0073683D01*
X0063731Y0073299D01*
X0064182Y0072932D01*
X0064196Y0072803D01*
X0069200Y0067799D01*
X0069200Y0067814D01*
X0069976Y0069689D01*
X0071411Y0071124D01*
X0072537Y0071590D01*
X0072189Y0071703D01*
X0071417Y0072096D01*
X0070717Y0072605D01*
X0070105Y0073217D01*
X0069596Y0073917D01*
X0069203Y0074689D01*
X0068935Y0075512D01*
X0068800Y0076367D01*
X0068800Y0076600D01*
X0074100Y0076600D01*
X0074100Y0077000D01*
X0068800Y0077000D01*
X0068800Y0077233D01*
X0068935Y0078088D01*
X0069203Y0078911D01*
X0069596Y0079683D01*
X0070105Y0080383D01*
X0070717Y0080995D01*
X0071417Y0081504D01*
X0072189Y0081897D01*
X0072537Y0082010D01*
X0071411Y0082476D01*
X0069976Y0083911D01*
X0069200Y0085786D01*
X0069200Y0087814D01*
X0069976Y0089689D01*
X0071411Y0091124D01*
X0070006Y0089718D02*
X0025568Y0089718D01*
X0027197Y0088120D02*
X0069326Y0088120D01*
X0069200Y0086521D02*
X0027481Y0086521D01*
X0024300Y0086800D02*
X0023050Y0086800D01*
X0013050Y0096800D01*
X0006800Y0096800D01*
X0011281Y0099309D02*
X0016180Y0099309D01*
X0015251Y0097711D02*
X0083882Y0097711D01*
X0089300Y0100550D02*
X0018050Y0100550D01*
X0011800Y0106800D01*
X0006800Y0106800D01*
X0010314Y0110499D02*
X0014990Y0110499D01*
X0013391Y0112097D02*
X0008774Y0112097D01*
X0010908Y0113696D02*
X0011793Y0113696D01*
X0011800Y0116800D02*
X0006800Y0116800D01*
X0011800Y0116800D02*
X0018050Y0110550D01*
X0089300Y0110550D01*
X0084291Y0107302D02*
X0014410Y0107302D01*
X0016008Y0105703D02*
X0112592Y0105703D01*
X0118814Y0105703D02*
X0178842Y0105703D01*
X0177243Y0104105D02*
X0140718Y0104105D01*
X0139873Y0104950D02*
X0138050Y0104950D01*
X0138050Y0100550D01*
X0138050Y0100550D01*
X0142450Y0100550D01*
X0142450Y0102373D01*
X0139873Y0104950D01*
X0138050Y0104950D02*
X0136227Y0104950D01*
X0133650Y0102373D01*
X0133650Y0100550D01*
X0138050Y0100550D01*
X0138050Y0100550D01*
X0138050Y0100550D01*
X0138050Y0104950D01*
X0138050Y0104105D02*
X0138050Y0104105D01*
X0138050Y0102506D02*
X0138050Y0102506D01*
X0138050Y0100908D02*
X0138050Y0100908D01*
X0138050Y0100550D02*
X0133650Y0100550D01*
X0133650Y0098727D01*
X0136227Y0096150D01*
X0138050Y0096150D01*
X0139873Y0096150D01*
X0142450Y0098727D01*
X0142450Y0100550D01*
X0138050Y0100550D01*
X0138050Y0096150D01*
X0138050Y0100550D01*
X0138050Y0100550D01*
X0138050Y0099309D02*
X0138050Y0099309D01*
X0138050Y0097711D02*
X0138050Y0097711D01*
X0141433Y0097711D02*
X0170849Y0097711D01*
X0169251Y0096112D02*
X0109223Y0096112D01*
X0108564Y0094514D02*
X0115817Y0094514D01*
X0115904Y0094550D02*
X0114434Y0093941D01*
X0113309Y0092816D01*
X0112700Y0091346D01*
X0112700Y0089754D01*
X0113309Y0088284D01*
X0114434Y0087159D01*
X0115904Y0086550D01*
X0122696Y0086550D01*
X0124166Y0087159D01*
X0125291Y0088284D01*
X0125900Y0089754D01*
X0125900Y0091346D01*
X0125291Y0092816D01*
X0124166Y0093941D01*
X0122696Y0094550D01*
X0115904Y0094550D01*
X0113408Y0092915D02*
X0107414Y0092915D01*
X0105550Y0095550D02*
X0119300Y0109300D01*
X0119300Y0110550D01*
X0119300Y0109090D01*
X0124309Y0107302D02*
X0180440Y0107302D01*
X0182039Y0108900D02*
X0125546Y0108900D01*
X0125900Y0110499D02*
X0190286Y0110499D01*
X0191826Y0112097D02*
X0125589Y0112097D01*
X0124411Y0113696D02*
X0189692Y0113696D01*
X0193800Y0116800D02*
X0183050Y0116800D01*
X0179300Y0120550D01*
X0119300Y0120550D01*
X0123523Y0116893D02*
X0179846Y0116893D01*
X0181444Y0115294D02*
X0016417Y0115294D01*
X0018015Y0113696D02*
X0084189Y0113696D01*
X0085077Y0116893D02*
X0014818Y0116893D01*
X0013220Y0118491D02*
X0041860Y0118491D01*
X0041119Y0120090D02*
X0021716Y0120090D01*
X0019384Y0120090D02*
X0010723Y0120090D01*
X0008325Y0121688D02*
X0017671Y0121688D01*
X0017369Y0123287D02*
X0010499Y0123287D01*
X0012997Y0124885D02*
X0017887Y0124885D01*
X0020873Y0126484D02*
X0014595Y0126484D01*
X0016194Y0128082D02*
X0022471Y0128082D01*
X0024070Y0129681D02*
X0017792Y0129681D01*
X0019391Y0131279D02*
X0025668Y0131279D01*
X0027267Y0132878D02*
X0020989Y0132878D01*
X0022588Y0134476D02*
X0085727Y0134476D01*
X0083920Y0137673D02*
X0025785Y0137673D01*
X0024186Y0136075D02*
X0180664Y0136075D01*
X0179065Y0137673D02*
X0124680Y0137673D01*
X0122873Y0134476D02*
X0189242Y0134476D01*
X0190510Y0132878D02*
X0125229Y0132878D01*
X0125089Y0128082D02*
X0178656Y0128082D01*
X0180255Y0126484D02*
X0027095Y0126484D01*
X0025497Y0124885D02*
X0181853Y0124885D01*
X0183050Y0126800D02*
X0179300Y0130550D01*
X0119300Y0130550D01*
X0124820Y0123287D02*
X0190101Y0123287D01*
X0192275Y0121688D02*
X0181273Y0121688D01*
X0182871Y0120090D02*
X0189877Y0120090D01*
X0193800Y0126800D02*
X0183050Y0126800D01*
X0183280Y0129681D02*
X0189473Y0129681D01*
X0191287Y0131279D02*
X0181682Y0131279D01*
X0183050Y0136800D02*
X0179300Y0140550D01*
X0119300Y0140550D01*
X0119300Y0147265D02*
X0119300Y0147265D01*
X0119300Y0148863D02*
X0119300Y0148863D01*
X0119300Y0150462D02*
X0119300Y0150462D01*
X0119300Y0152060D02*
X0119300Y0152060D01*
X0119300Y0153659D02*
X0119300Y0153659D01*
X0123433Y0156856D02*
X0183350Y0156856D01*
X0183350Y0158454D02*
X0125361Y0158454D01*
X0125900Y0160053D02*
X0183350Y0160053D01*
X0183350Y0161651D02*
X0125773Y0161651D01*
X0124857Y0163250D02*
X0183350Y0163250D01*
X0183350Y0164848D02*
X0121500Y0164848D01*
X0121500Y0166447D02*
X0183350Y0166447D01*
X0183350Y0168045D02*
X0121500Y0168045D01*
X0121500Y0169644D02*
X0138984Y0169644D01*
X0139977Y0168650D02*
X0137400Y0171227D01*
X0137400Y0173050D01*
X0141800Y0173050D01*
X0141800Y0173050D01*
X0141800Y0177450D01*
X0143623Y0177450D01*
X0146200Y0174873D01*
X0146200Y0173050D01*
X0141800Y0173050D01*
X0141800Y0173050D01*
X0141800Y0173050D01*
X0141800Y0177450D01*
X0139977Y0177450D01*
X0137400Y0174873D01*
X0137400Y0173050D01*
X0141800Y0173050D01*
X0146200Y0173050D01*
X0146200Y0171227D01*
X0143623Y0168650D01*
X0141800Y0168650D01*
X0141800Y0173050D01*
X0141800Y0173050D01*
X0141800Y0168650D01*
X0139977Y0168650D01*
X0141800Y0169644D02*
X0141800Y0169644D01*
X0141800Y0171242D02*
X0141800Y0171242D01*
X0141800Y0172841D02*
X0141800Y0172841D01*
X0141800Y0174439D02*
X0141800Y0174439D01*
X0141800Y0176038D02*
X0141800Y0176038D01*
X0145035Y0176038D02*
X0152315Y0176038D01*
X0151150Y0174873D02*
X0151150Y0173050D01*
X0155550Y0173050D01*
X0155550Y0173050D01*
X0155550Y0177450D01*
X0157373Y0177450D01*
X0159950Y0174873D01*
X0159950Y0173050D01*
X0155550Y0173050D01*
X0155550Y0173050D01*
X0155550Y0173050D01*
X0155550Y0177450D01*
X0153727Y0177450D01*
X0151150Y0174873D01*
X0151150Y0174439D02*
X0146200Y0174439D01*
X0146200Y0172841D02*
X0151150Y0172841D01*
X0151150Y0173050D02*
X0151150Y0171227D01*
X0153727Y0168650D01*
X0155550Y0168650D01*
X0157373Y0168650D01*
X0159950Y0171227D01*
X0159950Y0173050D01*
X0155550Y0173050D01*
X0155550Y0168650D01*
X0155550Y0173050D01*
X0155550Y0173050D01*
X0151150Y0173050D01*
X0151150Y0171242D02*
X0146200Y0171242D01*
X0144616Y0169644D02*
X0152734Y0169644D01*
X0155550Y0169644D02*
X0155550Y0169644D01*
X0155550Y0171242D02*
X0155550Y0171242D01*
X0155550Y0172841D02*
X0155550Y0172841D01*
X0155550Y0174439D02*
X0155550Y0174439D01*
X0155550Y0176038D02*
X0155550Y0176038D01*
X0158785Y0176038D02*
X0167315Y0176038D01*
X0166913Y0177636D02*
X0121500Y0177636D01*
X0121500Y0176038D02*
X0138565Y0176038D01*
X0137400Y0174439D02*
X0121500Y0174439D01*
X0121500Y0172841D02*
X0137400Y0172841D01*
X0137400Y0171242D02*
X0121500Y0171242D01*
X0117100Y0176038D02*
X0095399Y0176038D01*
X0096500Y0177139D02*
X0096500Y0177139D01*
X0096998Y0177636D02*
X0117100Y0177636D01*
X0117100Y0179235D02*
X0111707Y0179235D01*
X0111123Y0178650D02*
X0109300Y0178650D01*
X0109300Y0183050D01*
X0113700Y0183050D01*
X0113700Y0184873D01*
X0111123Y0187450D01*
X0109300Y0187450D01*
X0109300Y0183050D01*
X0109300Y0183050D01*
X0109300Y0183050D01*
X0113700Y0183050D01*
X0113700Y0181227D01*
X0111123Y0178650D01*
X0109300Y0178650D02*
X0109300Y0183050D01*
X0109300Y0183050D01*
X0109300Y0183050D01*
X0104900Y0183050D01*
X0104900Y0184873D01*
X0107477Y0187450D01*
X0109300Y0187450D01*
X0109300Y0183050D01*
X0104900Y0183050D01*
X0104900Y0181227D01*
X0107477Y0178650D01*
X0109300Y0178650D01*
X0109300Y0179235D02*
X0109300Y0179235D01*
X0109300Y0180833D02*
X0109300Y0180833D01*
X0109300Y0182432D02*
X0109300Y0182432D01*
X0109300Y0184030D02*
X0109300Y0184030D01*
X0109300Y0185629D02*
X0109300Y0185629D01*
X0109300Y0187227D02*
X0109300Y0187227D01*
X0111345Y0187227D02*
X0111966Y0187227D01*
X0112944Y0185629D02*
X0116222Y0185629D01*
X0116634Y0187227D02*
X0163261Y0187227D01*
X0164860Y0185629D02*
X0158628Y0185629D01*
X0155550Y0183050D02*
X0164610Y0183050D01*
X0168810Y0178850D01*
X0179750Y0178850D01*
X0185550Y0173050D01*
X0185550Y0146800D01*
X0188474Y0144068D02*
X0196850Y0144068D01*
X0196850Y0145666D02*
X0189410Y0145666D01*
X0189550Y0147265D02*
X0196850Y0147265D01*
X0196850Y0148863D02*
X0189025Y0148863D01*
X0187750Y0150462D02*
X0196850Y0150462D01*
X0196850Y0152060D02*
X0187750Y0152060D01*
X0187750Y0153659D02*
X0196850Y0153659D01*
X0196850Y0155257D02*
X0187750Y0155257D01*
X0187750Y0156856D02*
X0196850Y0156856D01*
X0196850Y0158454D02*
X0187750Y0158454D01*
X0187750Y0160053D02*
X0196850Y0160053D01*
X0196850Y0161651D02*
X0187750Y0161651D01*
X0187750Y0163250D02*
X0196850Y0163250D01*
X0196850Y0164848D02*
X0187750Y0164848D01*
X0187750Y0166447D02*
X0196850Y0166447D01*
X0196850Y0168045D02*
X0187750Y0168045D01*
X0187801Y0169644D02*
X0196850Y0169644D01*
X0196850Y0171242D02*
X0189399Y0171242D01*
X0189550Y0172841D02*
X0196850Y0172841D01*
X0196850Y0174439D02*
X0189550Y0174439D01*
X0188219Y0176038D02*
X0196850Y0176038D01*
X0196850Y0177636D02*
X0184075Y0177636D01*
X0183727Y0178650D02*
X0181150Y0181227D01*
X0181150Y0183050D01*
X0185550Y0183050D01*
X0185550Y0183050D01*
X0185550Y0187450D01*
X0187373Y0187450D01*
X0189950Y0184873D01*
X0189950Y0183050D01*
X0185550Y0183050D01*
X0185550Y0183050D01*
X0185550Y0183050D01*
X0185550Y0187450D01*
X0183727Y0187450D01*
X0181150Y0184873D01*
X0181150Y0183050D01*
X0185550Y0183050D01*
X0189950Y0183050D01*
X0189950Y0181227D01*
X0187373Y0178650D01*
X0185550Y0178650D01*
X0185550Y0183050D01*
X0185550Y0183050D01*
X0185550Y0178650D01*
X0183727Y0178650D01*
X0183143Y0179235D02*
X0182477Y0179235D01*
X0181544Y0180833D02*
X0180878Y0180833D01*
X0181150Y0182432D02*
X0174550Y0182432D01*
X0174550Y0184030D02*
X0181150Y0184030D01*
X0181906Y0185629D02*
X0173628Y0185629D01*
X0170550Y0183050D02*
X0163050Y0190550D01*
X0114300Y0190550D01*
X0106800Y0190550D01*
X0094300Y0178050D01*
X0076800Y0178050D01*
X0073424Y0181426D01*
X0073424Y0185550D01*
X0069751Y0184030D02*
X0069223Y0184030D01*
X0068053Y0182432D02*
X0070921Y0182432D01*
X0071224Y0180833D02*
X0042584Y0180833D01*
X0044216Y0182432D02*
X0046742Y0182432D01*
X0045703Y0184030D02*
X0045111Y0184030D01*
X0045680Y0187227D02*
X0045768Y0187227D01*
X0045419Y0188826D02*
X0046900Y0188826D01*
X0044757Y0190424D02*
X0103563Y0190424D01*
X0104600Y0191461D02*
X0104600Y0191461D01*
X0105162Y0192023D02*
X0043361Y0192023D01*
X0040520Y0193621D02*
X0111715Y0193621D01*
X0116885Y0193621D02*
X0196850Y0193621D01*
X0196850Y0192023D02*
X0164688Y0192023D01*
X0166287Y0190424D02*
X0196850Y0190424D01*
X0196850Y0188826D02*
X0167885Y0188826D01*
X0169484Y0187227D02*
X0183505Y0187227D01*
X0185550Y0187227D02*
X0185550Y0187227D01*
X0185550Y0185629D02*
X0185550Y0185629D01*
X0185550Y0184030D02*
X0185550Y0184030D01*
X0185550Y0182432D02*
X0185550Y0182432D01*
X0185550Y0180833D02*
X0185550Y0180833D01*
X0185550Y0179235D02*
X0185550Y0179235D01*
X0187957Y0179235D02*
X0196850Y0179235D01*
X0196850Y0180833D02*
X0189556Y0180833D01*
X0189950Y0182432D02*
X0196850Y0182432D01*
X0196850Y0184030D02*
X0189950Y0184030D01*
X0189194Y0185629D02*
X0196850Y0185629D01*
X0196850Y0187227D02*
X0187595Y0187227D01*
X0196850Y0195220D02*
X0003600Y0195220D01*
X0003600Y0196818D02*
X0196850Y0196818D01*
X0179451Y0176038D02*
X0173785Y0176038D01*
X0174950Y0174439D02*
X0181049Y0174439D01*
X0181550Y0172841D02*
X0174950Y0172841D01*
X0174950Y0173050D02*
X0170550Y0173050D01*
X0170550Y0173050D01*
X0170550Y0168650D01*
X0172373Y0168650D01*
X0174950Y0171227D01*
X0174950Y0173050D01*
X0174950Y0171242D02*
X0181701Y0171242D01*
X0183299Y0169644D02*
X0173366Y0169644D01*
X0170550Y0169644D02*
X0170550Y0169644D01*
X0170550Y0168650D02*
X0170550Y0173050D01*
X0170550Y0173050D01*
X0170550Y0173050D01*
X0166150Y0173050D01*
X0166150Y0171227D01*
X0168727Y0168650D01*
X0170550Y0168650D01*
X0170550Y0171242D02*
X0170550Y0171242D01*
X0170550Y0172841D02*
X0170550Y0172841D01*
X0167734Y0169644D02*
X0158366Y0169644D01*
X0159950Y0171242D02*
X0166150Y0171242D01*
X0166150Y0172841D02*
X0159950Y0172841D01*
X0159950Y0174439D02*
X0166150Y0174439D01*
X0165314Y0179235D02*
X0157392Y0179235D01*
X0158990Y0180833D02*
X0163716Y0180833D01*
X0155550Y0183050D02*
X0141800Y0183050D01*
X0121800Y0183050D01*
X0119300Y0180550D01*
X0119300Y0160550D01*
X0121500Y0179235D02*
X0139958Y0179235D01*
X0138360Y0180833D02*
X0122740Y0180833D01*
X0121800Y0183050D02*
X0119300Y0183050D01*
X0122378Y0185629D02*
X0138722Y0185629D01*
X0144878Y0185629D02*
X0152472Y0185629D01*
X0152110Y0180833D02*
X0145240Y0180833D01*
X0143642Y0179235D02*
X0153708Y0179235D01*
X0180492Y0142469D02*
X0196850Y0142469D01*
X0190658Y0140870D02*
X0182091Y0140870D01*
X0183689Y0139272D02*
X0189304Y0139272D01*
X0193800Y0136800D02*
X0183050Y0136800D01*
X0183050Y0106800D02*
X0193800Y0106800D01*
X0189396Y0104105D02*
X0183466Y0104105D01*
X0181867Y0102506D02*
X0190881Y0102506D01*
X0190695Y0100908D02*
X0180269Y0100908D01*
X0178670Y0099309D02*
X0189319Y0099309D01*
X0189227Y0094514D02*
X0183875Y0094514D01*
X0182276Y0092915D02*
X0190472Y0092915D01*
X0191377Y0091317D02*
X0180678Y0091317D01*
X0179079Y0089718D02*
X0189506Y0089718D01*
X0193800Y0086800D02*
X0184300Y0086800D01*
X0138050Y0040550D01*
X0119300Y0040550D01*
X0123703Y0036967D02*
X0142606Y0036967D01*
X0141007Y0035369D02*
X0103843Y0035369D01*
X0105441Y0033770D02*
X0114263Y0033770D01*
X0113042Y0032172D02*
X0107040Y0032172D01*
X0108638Y0030573D02*
X0112700Y0030573D01*
X0113023Y0028975D02*
X0110237Y0028975D01*
X0111835Y0027376D02*
X0114217Y0027376D01*
X0113434Y0025778D02*
X0196850Y0025778D01*
X0196850Y0027376D02*
X0124383Y0027376D01*
X0119300Y0030550D02*
X0139300Y0030550D01*
X0185550Y0076800D01*
X0193800Y0076800D01*
X0191737Y0072134D02*
X0183996Y0072134D01*
X0182397Y0070536D02*
X0189758Y0070536D01*
X0188716Y0068937D02*
X0180799Y0068937D01*
X0179200Y0067339D02*
X0188317Y0067339D01*
X0188300Y0066600D02*
X0188300Y0066367D01*
X0188435Y0065512D01*
X0188703Y0064689D01*
X0189096Y0063917D01*
X0189605Y0063217D01*
X0190217Y0062605D01*
X0190917Y0062096D01*
X0191689Y0061703D01*
X0192512Y0061435D01*
X0193367Y0061300D01*
X0193600Y0061300D01*
X0193600Y0066600D01*
X0188300Y0066600D01*
X0188399Y0065740D02*
X0177602Y0065740D01*
X0176003Y0064142D02*
X0188982Y0064142D01*
X0190302Y0062543D02*
X0174405Y0062543D01*
X0172806Y0060945D02*
X0196850Y0060945D01*
X0196850Y0059346D02*
X0171208Y0059346D01*
X0169609Y0057748D02*
X0196850Y0057748D01*
X0196850Y0056149D02*
X0194923Y0056149D01*
X0196200Y0054873D02*
X0193623Y0057450D01*
X0191800Y0057450D01*
X0191800Y0053050D01*
X0191800Y0053050D01*
X0196200Y0053050D01*
X0196200Y0054873D01*
X0196200Y0054551D02*
X0196850Y0054551D01*
X0196850Y0052952D02*
X0196200Y0052952D01*
X0196200Y0053050D02*
X0191800Y0053050D01*
X0191800Y0053050D01*
X0191800Y0053050D01*
X0187400Y0053050D01*
X0187400Y0054873D01*
X0189977Y0057450D01*
X0191800Y0057450D01*
X0191800Y0053050D01*
X0191800Y0048650D01*
X0193623Y0048650D01*
X0196200Y0051227D01*
X0196200Y0053050D01*
X0196200Y0051354D02*
X0196850Y0051354D01*
X0196850Y0049755D02*
X0194728Y0049755D01*
X0196850Y0048157D02*
X0160018Y0048157D01*
X0161617Y0049755D02*
X0188872Y0049755D01*
X0189977Y0048650D02*
X0187400Y0051227D01*
X0187400Y0053050D01*
X0191800Y0053050D01*
X0191800Y0053050D01*
X0191800Y0048650D01*
X0189977Y0048650D01*
X0191800Y0049755D02*
X0191800Y0049755D01*
X0191800Y0051354D02*
X0191800Y0051354D01*
X0191800Y0052952D02*
X0191800Y0052952D01*
X0191800Y0054551D02*
X0191800Y0054551D01*
X0191800Y0056149D02*
X0191800Y0056149D01*
X0188677Y0056149D02*
X0168011Y0056149D01*
X0166412Y0054551D02*
X0187400Y0054551D01*
X0187400Y0052952D02*
X0164814Y0052952D01*
X0163215Y0051354D02*
X0187400Y0051354D01*
X0196850Y0046558D02*
X0158420Y0046558D01*
X0156821Y0044960D02*
X0196850Y0044960D01*
X0196850Y0043361D02*
X0155223Y0043361D01*
X0153624Y0041763D02*
X0196850Y0041763D01*
X0196850Y0040164D02*
X0152026Y0040164D01*
X0150427Y0038566D02*
X0196850Y0038566D01*
X0196850Y0036967D02*
X0148829Y0036967D01*
X0147230Y0035369D02*
X0196850Y0035369D01*
X0196850Y0033770D02*
X0145631Y0033770D01*
X0144033Y0032172D02*
X0196850Y0032172D01*
X0196850Y0030573D02*
X0142434Y0030573D01*
X0140836Y0028975D02*
X0196850Y0028975D01*
X0196850Y0024179D02*
X0115032Y0024179D01*
X0115550Y0020550D02*
X0163050Y0020550D01*
X0170550Y0013050D01*
X0173070Y0016187D02*
X0178030Y0016187D01*
X0178893Y0017050D02*
X0176550Y0014707D01*
X0176550Y0011393D01*
X0178893Y0009050D01*
X0182207Y0009050D01*
X0184007Y0010850D01*
X0188343Y0010850D01*
X0190143Y0009050D01*
X0193457Y0009050D01*
X0195800Y0011393D01*
X0195800Y0014707D01*
X0193457Y0017050D01*
X0190143Y0017050D01*
X0188343Y0015250D01*
X0184007Y0015250D01*
X0182207Y0017050D01*
X0178893Y0017050D01*
X0176550Y0014588D02*
X0174550Y0014588D01*
X0174550Y0012990D02*
X0176550Y0012990D01*
X0176552Y0011391D02*
X0174548Y0011391D01*
X0172949Y0009793D02*
X0178151Y0009793D01*
X0180550Y0013050D02*
X0191800Y0013050D01*
X0194320Y0016187D02*
X0196850Y0016187D01*
X0196850Y0017785D02*
X0168926Y0017785D01*
X0167328Y0019384D02*
X0196850Y0019384D01*
X0196850Y0020982D02*
X0165729Y0020982D01*
X0164131Y0022581D02*
X0196850Y0022581D01*
X0196850Y0014588D02*
X0195800Y0014588D01*
X0195800Y0012990D02*
X0196850Y0012990D01*
X0196850Y0011391D02*
X0195798Y0011391D01*
X0196850Y0009793D02*
X0194199Y0009793D01*
X0196850Y0008194D02*
X0163167Y0008194D01*
X0163700Y0008727D02*
X0163700Y0010550D01*
X0163700Y0012373D01*
X0161123Y0014950D01*
X0159300Y0014950D01*
X0159300Y0010550D01*
X0163700Y0010550D01*
X0159300Y0010550D01*
X0159300Y0010550D01*
X0159300Y0010550D01*
X0159300Y0006150D01*
X0161123Y0006150D01*
X0163700Y0008727D01*
X0163700Y0009793D02*
X0168151Y0009793D01*
X0166552Y0011391D02*
X0163700Y0011391D01*
X0163083Y0012990D02*
X0166550Y0012990D01*
X0165901Y0014588D02*
X0161484Y0014588D01*
X0159300Y0014588D02*
X0159300Y0014588D01*
X0159300Y0014950D02*
X0157477Y0014950D01*
X0154900Y0012373D01*
X0154900Y0010550D01*
X0159300Y0010550D01*
X0159300Y0010550D01*
X0159300Y0010550D01*
X0159300Y0014950D01*
X0159300Y0012990D02*
X0159300Y0012990D01*
X0159300Y0011391D02*
X0159300Y0011391D01*
X0159300Y0010550D02*
X0154900Y0010550D01*
X0154900Y0008727D01*
X0157477Y0006150D01*
X0159300Y0006150D01*
X0159300Y0010550D01*
X0159300Y0009793D02*
X0159300Y0009793D01*
X0159300Y0008194D02*
X0159300Y0008194D01*
X0159300Y0006596D02*
X0159300Y0006596D01*
X0161568Y0006596D02*
X0196850Y0006596D01*
X0196850Y0004997D02*
X0003600Y0004997D01*
X0003600Y0006596D02*
X0117598Y0006596D01*
X0117643Y0006550D02*
X0120957Y0006550D01*
X0123300Y0008893D01*
X0123300Y0012207D01*
X0120957Y0014550D01*
X0117643Y0014550D01*
X0116680Y0013587D01*
X0114550Y0014195D01*
X0114550Y0014707D01*
X0112207Y0017050D01*
X0108893Y0017050D01*
X0106550Y0014707D01*
X0106550Y0011393D01*
X0108893Y0009050D01*
X0112207Y0009050D01*
X0113170Y0010013D01*
X0115300Y0009405D01*
X0115300Y0008893D01*
X0117643Y0006550D01*
X0115999Y0008194D02*
X0086884Y0008194D01*
X0087183Y0008346D02*
X0087883Y0008855D01*
X0088495Y0009467D01*
X0089004Y0010167D01*
X0089397Y0010939D01*
X0089665Y0011762D01*
X0089800Y0012617D01*
X0089800Y0012850D01*
X0084500Y0012850D01*
X0084500Y0013250D01*
X0084100Y0013250D01*
X0084100Y0018550D01*
X0083867Y0018550D01*
X0083012Y0018415D01*
X0082189Y0018147D01*
X0081417Y0017754D01*
X0080717Y0017245D01*
X0080105Y0016633D01*
X0079596Y0015933D01*
X0079203Y0015161D01*
X0078935Y0014338D01*
X0078800Y0013483D01*
X0078800Y0013250D01*
X0084100Y0013250D01*
X0084100Y0012850D01*
X0078800Y0012850D01*
X0078800Y0012617D01*
X0078935Y0011762D01*
X0079203Y0010939D01*
X0079596Y0010167D01*
X0080105Y0009467D01*
X0080717Y0008855D01*
X0081417Y0008346D01*
X0082189Y0007953D01*
X0083012Y0007685D01*
X0083867Y0007550D01*
X0084100Y0007550D01*
X0084100Y0012850D01*
X0084500Y0012850D01*
X0084500Y0007550D01*
X0084733Y0007550D01*
X0085588Y0007685D01*
X0086411Y0007953D01*
X0087183Y0008346D01*
X0088732Y0009793D02*
X0098151Y0009793D01*
X0098893Y0009050D02*
X0096550Y0011393D01*
X0096550Y0014707D01*
X0098893Y0017050D01*
X0102207Y0017050D01*
X0104550Y0014707D01*
X0104550Y0011393D01*
X0102207Y0009050D01*
X0098893Y0009050D01*
X0096552Y0011391D02*
X0089544Y0011391D01*
X0089800Y0013250D02*
X0089800Y0013483D01*
X0089665Y0014338D01*
X0089397Y0015161D01*
X0089004Y0015933D01*
X0088495Y0016633D01*
X0087883Y0017245D01*
X0087183Y0017754D01*
X0086411Y0018147D01*
X0085588Y0018415D01*
X0084733Y0018550D01*
X0084500Y0018550D01*
X0084500Y0013250D01*
X0089800Y0013250D01*
X0089583Y0014588D02*
X0096550Y0014588D01*
X0096550Y0012990D02*
X0084500Y0012990D01*
X0084100Y0012990D02*
X0069400Y0012990D01*
X0069400Y0012036D02*
X0069400Y0014064D01*
X0068624Y0015939D01*
X0067189Y0017374D01*
X0065314Y0018150D01*
X0063286Y0018150D01*
X0061411Y0017374D01*
X0059976Y0015939D01*
X0059691Y0015250D01*
X0057711Y0015250D01*
X0049000Y0023961D01*
X0047711Y0025250D01*
X0029099Y0025250D01*
X0028602Y0025747D01*
X0027433Y0026231D01*
X0026167Y0026231D01*
X0024998Y0025747D01*
X0024103Y0024852D01*
X0023619Y0023683D01*
X0023619Y0022417D01*
X0024103Y0021248D01*
X0024998Y0020353D01*
X0026167Y0019869D01*
X0027433Y0019869D01*
X0028602Y0020353D01*
X0029099Y0020850D01*
X0045889Y0020850D01*
X0055889Y0010850D01*
X0059691Y0010850D01*
X0059976Y0010161D01*
X0061411Y0008726D01*
X0063286Y0007950D01*
X0065314Y0007950D01*
X0067189Y0008726D01*
X0068624Y0010161D01*
X0069400Y0012036D01*
X0069133Y0011391D02*
X0079056Y0011391D01*
X0079868Y0009793D02*
X0068255Y0009793D01*
X0065904Y0008194D02*
X0081716Y0008194D01*
X0084100Y0008194D02*
X0084500Y0008194D01*
X0084500Y0009793D02*
X0084100Y0009793D01*
X0084100Y0011391D02*
X0084500Y0011391D01*
X0084500Y0014588D02*
X0084100Y0014588D01*
X0084100Y0016187D02*
X0084500Y0016187D01*
X0084500Y0017785D02*
X0084100Y0017785D01*
X0087122Y0017785D02*
X0162704Y0017785D01*
X0164302Y0016187D02*
X0113070Y0016187D01*
X0114550Y0014588D02*
X0157116Y0014588D01*
X0155517Y0012990D02*
X0122517Y0012990D01*
X0123300Y0011391D02*
X0154900Y0011391D01*
X0154900Y0009793D02*
X0123300Y0009793D01*
X0122601Y0008194D02*
X0155433Y0008194D01*
X0157032Y0006596D02*
X0121002Y0006596D01*
X0119300Y0010550D02*
X0110550Y0013050D01*
X0106550Y0012990D02*
X0104550Y0012990D01*
X0104550Y0014588D02*
X0106550Y0014588D01*
X0108030Y0016187D02*
X0103070Y0016187D01*
X0104548Y0011391D02*
X0106552Y0011391D01*
X0108151Y0009793D02*
X0102949Y0009793D01*
X0098030Y0016187D02*
X0088819Y0016187D01*
X0081478Y0017785D02*
X0066195Y0017785D01*
X0068376Y0016187D02*
X0079781Y0016187D01*
X0079017Y0014588D02*
X0069183Y0014588D01*
X0064300Y0013050D02*
X0056800Y0013050D01*
X0046800Y0023050D01*
X0026800Y0023050D01*
X0025073Y0025778D02*
X0020139Y0025778D01*
X0021737Y0027376D02*
X0056550Y0027376D01*
X0056550Y0028457D02*
X0056550Y0025143D01*
X0058893Y0022800D01*
X0062207Y0022800D01*
X0064550Y0025143D01*
X0064550Y0028457D01*
X0062207Y0030800D01*
X0058893Y0030800D01*
X0056550Y0028457D01*
X0057068Y0028975D02*
X0023336Y0028975D01*
X0024934Y0030573D02*
X0058666Y0030573D01*
X0062434Y0030573D02*
X0082700Y0030573D01*
X0082700Y0031346D02*
X0082700Y0029754D01*
X0083309Y0028284D01*
X0084434Y0027159D01*
X0085904Y0026550D01*
X0092696Y0026550D01*
X0094166Y0027159D01*
X0095291Y0028284D01*
X0095900Y0029754D01*
X0095900Y0031346D01*
X0095291Y0032816D01*
X0094166Y0033941D01*
X0092696Y0034550D01*
X0087266Y0034550D01*
X0076242Y0041900D01*
X0076231Y0041943D01*
X0075489Y0042402D01*
X0074762Y0042886D01*
X0074719Y0042877D01*
X0034981Y0067421D01*
X0034981Y0067433D01*
X0034497Y0068602D01*
X0033602Y0069497D01*
X0032433Y0069981D01*
X0031167Y0069981D01*
X0029998Y0069497D01*
X0029103Y0068602D01*
X0028619Y0067433D01*
X0028619Y0066167D01*
X0029103Y0064998D01*
X0029998Y0064103D01*
X0031167Y0063619D01*
X0032433Y0063619D01*
X0032631Y0063701D01*
X0073111Y0038698D01*
X0083012Y0032098D01*
X0082700Y0031346D01*
X0082901Y0032172D02*
X0045329Y0032172D01*
X0044707Y0031550D02*
X0046507Y0033350D01*
X0067001Y0033350D01*
X0067498Y0032853D01*
X0068667Y0032369D01*
X0069933Y0032369D01*
X0071102Y0032853D01*
X0071997Y0033748D01*
X0072481Y0034917D01*
X0072481Y0036183D01*
X0071997Y0037352D01*
X0071102Y0038247D01*
X0069933Y0038731D01*
X0068667Y0038731D01*
X0067498Y0038247D01*
X0067001Y0037750D01*
X0046507Y0037750D01*
X0044707Y0039550D01*
X0041393Y0039550D01*
X0039050Y0037207D01*
X0039050Y0033893D01*
X0041393Y0031550D01*
X0044707Y0031550D01*
X0040771Y0032172D02*
X0026533Y0032172D01*
X0028131Y0033770D02*
X0039173Y0033770D01*
X0039050Y0035369D02*
X0029730Y0035369D01*
X0031329Y0036967D02*
X0039050Y0036967D01*
X0040409Y0038566D02*
X0032927Y0038566D01*
X0034526Y0040164D02*
X0070738Y0040164D01*
X0070332Y0038566D02*
X0073310Y0038566D01*
X0072156Y0036967D02*
X0075708Y0036967D01*
X0078106Y0035369D02*
X0072481Y0035369D01*
X0072006Y0033770D02*
X0080504Y0033770D01*
X0083640Y0036967D02*
X0084897Y0036967D01*
X0086038Y0035369D02*
X0097620Y0035369D01*
X0096021Y0036967D02*
X0093703Y0036967D01*
X0095550Y0040550D02*
X0115550Y0020550D01*
X0113605Y0019384D02*
X0053578Y0019384D01*
X0051979Y0020982D02*
X0112007Y0020982D01*
X0110408Y0022581D02*
X0050381Y0022581D01*
X0048782Y0024179D02*
X0057514Y0024179D01*
X0056550Y0025778D02*
X0028527Y0025778D01*
X0023825Y0024179D02*
X0018540Y0024179D01*
X0016942Y0022581D02*
X0023619Y0022581D01*
X0024369Y0020982D02*
X0015343Y0020982D01*
X0013745Y0019384D02*
X0047355Y0019384D01*
X0045933Y0017754D02*
X0045161Y0018147D01*
X0044338Y0018415D01*
X0043483Y0018550D01*
X0043250Y0018550D01*
X0043250Y0013250D01*
X0042850Y0013250D01*
X0042850Y0018550D01*
X0042617Y0018550D01*
X0041762Y0018415D01*
X0040939Y0018147D01*
X0040167Y0017754D01*
X0039467Y0017245D01*
X0038855Y0016633D01*
X0038346Y0015933D01*
X0037953Y0015161D01*
X0037685Y0014338D01*
X0037550Y0013483D01*
X0037550Y0013250D01*
X0042850Y0013250D01*
X0042850Y0012850D01*
X0037550Y0012850D01*
X0037550Y0012617D01*
X0037685Y0011762D01*
X0037953Y0010939D01*
X0038346Y0010167D01*
X0038855Y0009467D01*
X0039467Y0008855D01*
X0040167Y0008346D01*
X0040939Y0007953D01*
X0041762Y0007685D01*
X0042617Y0007550D01*
X0042850Y0007550D01*
X0042850Y0012850D01*
X0043250Y0012850D01*
X0043250Y0013250D01*
X0048550Y0013250D01*
X0048550Y0013483D01*
X0048415Y0014338D01*
X0048147Y0015161D01*
X0047754Y0015933D01*
X0047245Y0016633D01*
X0046633Y0017245D01*
X0045933Y0017754D01*
X0045872Y0017785D02*
X0048954Y0017785D01*
X0047569Y0016187D02*
X0050552Y0016187D01*
X0052151Y0014588D02*
X0048333Y0014588D01*
X0048550Y0012850D02*
X0043250Y0012850D01*
X0043250Y0007550D01*
X0043483Y0007550D01*
X0044338Y0007685D01*
X0045161Y0007953D01*
X0045933Y0008346D01*
X0046633Y0008855D01*
X0047245Y0009467D01*
X0047754Y0010167D01*
X0048147Y0010939D01*
X0048415Y0011762D01*
X0048550Y0012617D01*
X0048550Y0012850D01*
X0048294Y0011391D02*
X0055348Y0011391D01*
X0053749Y0012990D02*
X0043250Y0012990D01*
X0042850Y0012990D02*
X0028150Y0012990D01*
X0028150Y0012036D02*
X0028150Y0014064D01*
X0027374Y0015939D01*
X0025939Y0017374D01*
X0024064Y0018150D01*
X0022036Y0018150D01*
X0020161Y0017374D01*
X0018726Y0015939D01*
X0017950Y0014064D01*
X0017950Y0012036D01*
X0018726Y0010161D01*
X0020161Y0008726D01*
X0022036Y0007950D01*
X0024064Y0007950D01*
X0025939Y0008726D01*
X0027374Y0010161D01*
X0028150Y0012036D01*
X0027883Y0011391D02*
X0037806Y0011391D01*
X0038618Y0009793D02*
X0027005Y0009793D01*
X0024654Y0008194D02*
X0040466Y0008194D01*
X0042850Y0008194D02*
X0043250Y0008194D01*
X0043250Y0009793D02*
X0042850Y0009793D01*
X0042850Y0011391D02*
X0043250Y0011391D01*
X0045634Y0008194D02*
X0062696Y0008194D01*
X0060345Y0009793D02*
X0047482Y0009793D01*
X0043250Y0014588D02*
X0042850Y0014588D01*
X0042850Y0016187D02*
X0043250Y0016187D01*
X0043250Y0017785D02*
X0042850Y0017785D01*
X0040228Y0017785D02*
X0024945Y0017785D01*
X0027126Y0016187D02*
X0038531Y0016187D01*
X0037767Y0014588D02*
X0027933Y0014588D01*
X0021155Y0017785D02*
X0012146Y0017785D01*
X0011900Y0016187D02*
X0018974Y0016187D01*
X0018167Y0014588D02*
X0011404Y0014588D01*
X0010202Y0012990D02*
X0017950Y0012990D01*
X0018217Y0011391D02*
X0003600Y0011391D01*
X0003600Y0009793D02*
X0019095Y0009793D01*
X0021446Y0008194D02*
X0003600Y0008194D01*
X0006800Y0016800D02*
X0008050Y0016800D01*
X0035550Y0044300D01*
X0033310Y0046558D02*
X0020047Y0046558D01*
X0019763Y0048157D02*
X0057798Y0048157D01*
X0060386Y0046558D02*
X0037790Y0046558D01*
X0038720Y0044960D02*
X0062974Y0044960D01*
X0065562Y0043361D02*
X0038604Y0043361D01*
X0037512Y0041763D02*
X0068150Y0041763D01*
X0068268Y0038566D02*
X0045691Y0038566D01*
X0043050Y0035550D02*
X0069300Y0035550D01*
X0074300Y0040550D02*
X0089300Y0030550D01*
X0084217Y0027376D02*
X0064550Y0027376D01*
X0064550Y0025778D02*
X0107211Y0025778D01*
X0105613Y0027376D02*
X0094383Y0027376D01*
X0095577Y0028975D02*
X0104014Y0028975D01*
X0102416Y0030573D02*
X0095900Y0030573D01*
X0095558Y0032172D02*
X0100817Y0032172D01*
X0099218Y0033770D02*
X0094337Y0033770D01*
X0095550Y0040550D02*
X0089300Y0040550D01*
X0095550Y0046800D01*
X0103050Y0046800D01*
X0105550Y0049300D01*
X0108520Y0048157D02*
X0113436Y0048157D01*
X0112700Y0049755D02*
X0108731Y0049755D01*
X0107995Y0051354D02*
X0112703Y0051354D01*
X0113446Y0052952D02*
X0095154Y0052952D01*
X0095897Y0051354D02*
X0103105Y0051354D01*
X0102369Y0049755D02*
X0095900Y0049755D01*
X0095223Y0043361D02*
X0113854Y0043361D01*
X0112873Y0041763D02*
X0097448Y0041763D01*
X0099047Y0040164D02*
X0112700Y0040164D01*
X0113192Y0038566D02*
X0100645Y0038566D01*
X0102244Y0036967D02*
X0114897Y0036967D01*
X0115884Y0046558D02*
X0107244Y0046558D01*
X0104321Y0044960D02*
X0139349Y0044960D01*
X0140947Y0046558D02*
X0122716Y0046558D01*
X0124746Y0043361D02*
X0137750Y0043361D01*
X0140776Y0040164D02*
X0145803Y0040164D01*
X0144204Y0038566D02*
X0139177Y0038566D01*
X0140250Y0039639D02*
X0140250Y0039639D01*
X0142374Y0041763D02*
X0147402Y0041763D01*
X0149000Y0043361D02*
X0143973Y0043361D01*
X0145571Y0044960D02*
X0150599Y0044960D01*
X0152197Y0046558D02*
X0147170Y0046558D01*
X0148768Y0048157D02*
X0153796Y0048157D01*
X0155394Y0049755D02*
X0150367Y0049755D01*
X0151965Y0051354D02*
X0156993Y0051354D01*
X0158591Y0052952D02*
X0153564Y0052952D01*
X0155162Y0054551D02*
X0160190Y0054551D01*
X0161788Y0056149D02*
X0156761Y0056149D01*
X0158359Y0057748D02*
X0163387Y0057748D01*
X0164985Y0059346D02*
X0159958Y0059346D01*
X0161556Y0060945D02*
X0166584Y0060945D01*
X0168182Y0062543D02*
X0163155Y0062543D01*
X0164753Y0064142D02*
X0169781Y0064142D01*
X0171379Y0065740D02*
X0166352Y0065740D01*
X0167950Y0067339D02*
X0172978Y0067339D01*
X0174576Y0068937D02*
X0169549Y0068937D01*
X0171147Y0070536D02*
X0176175Y0070536D01*
X0177773Y0072134D02*
X0172746Y0072134D01*
X0174344Y0073733D02*
X0179372Y0073733D01*
X0180970Y0075332D02*
X0175943Y0075332D01*
X0177541Y0076930D02*
X0182369Y0076930D01*
X0182823Y0078529D02*
X0179140Y0078529D01*
X0180738Y0080127D02*
X0189915Y0080127D01*
X0192364Y0081726D02*
X0182337Y0081726D01*
X0183935Y0083324D02*
X0190063Y0083324D01*
X0182508Y0088120D02*
X0177481Y0088120D01*
X0175882Y0086521D02*
X0180910Y0086521D01*
X0182100Y0087711D02*
X0182100Y0087711D01*
X0179311Y0084923D02*
X0174284Y0084923D01*
X0172685Y0083324D02*
X0177713Y0083324D01*
X0176114Y0081726D02*
X0171087Y0081726D01*
X0169488Y0080127D02*
X0174516Y0080127D01*
X0172917Y0078529D02*
X0167890Y0078529D01*
X0166291Y0076930D02*
X0171319Y0076930D01*
X0169720Y0075332D02*
X0164693Y0075332D01*
X0163094Y0073733D02*
X0168122Y0073733D01*
X0166523Y0072134D02*
X0161496Y0072134D01*
X0159897Y0070536D02*
X0164925Y0070536D01*
X0163326Y0068937D02*
X0158299Y0068937D01*
X0156700Y0067339D02*
X0161728Y0067339D01*
X0160129Y0065740D02*
X0155102Y0065740D01*
X0153503Y0064142D02*
X0158531Y0064142D01*
X0156932Y0062543D02*
X0151905Y0062543D01*
X0150306Y0060945D02*
X0155334Y0060945D01*
X0153735Y0059346D02*
X0148708Y0059346D01*
X0147109Y0057748D02*
X0152137Y0057748D01*
X0150538Y0056149D02*
X0145511Y0056149D01*
X0143912Y0054551D02*
X0148940Y0054551D01*
X0147341Y0052952D02*
X0142314Y0052952D01*
X0140715Y0051354D02*
X0145743Y0051354D01*
X0144144Y0049755D02*
X0139117Y0049755D01*
X0136800Y0050550D02*
X0183050Y0096800D01*
X0193800Y0096800D01*
X0183050Y0106800D02*
X0136800Y0060550D01*
X0119300Y0060550D01*
X0114919Y0064142D02*
X0093681Y0064142D01*
X0095404Y0062543D02*
X0113196Y0062543D01*
X0112700Y0060945D02*
X0095900Y0060945D01*
X0095731Y0059346D02*
X0112869Y0059346D01*
X0113845Y0057748D02*
X0094755Y0057748D01*
X0088410Y0054551D02*
X0137690Y0054551D01*
X0139288Y0056149D02*
X0086812Y0056149D01*
X0089300Y0050550D02*
X0078150Y0061700D01*
X0072188Y0061700D01*
X0062087Y0071800D01*
X0060550Y0073050D01*
X0057486Y0072134D02*
X0045291Y0072134D01*
X0046890Y0073733D02*
X0057390Y0073733D01*
X0058333Y0075332D02*
X0047050Y0075332D01*
X0047050Y0076930D02*
X0074100Y0076930D01*
X0074500Y0076930D02*
X0084987Y0076930D01*
X0083208Y0078529D02*
X0079521Y0078529D01*
X0078681Y0080127D02*
X0082700Y0080127D01*
X0082857Y0081726D02*
X0076748Y0081726D01*
X0078037Y0083324D02*
X0083415Y0083324D01*
X0083050Y0086800D02*
X0089300Y0080550D01*
X0088039Y0084923D02*
X0158061Y0084923D01*
X0159660Y0086521D02*
X0093685Y0086521D01*
X0095573Y0088120D02*
X0113474Y0088120D01*
X0112715Y0089718D02*
X0096223Y0089718D01*
X0096233Y0091317D02*
X0112700Y0091317D01*
X0115904Y0084550D02*
X0114434Y0083941D01*
X0113309Y0082816D01*
X0112700Y0081346D01*
X0112700Y0079754D01*
X0113309Y0078284D01*
X0114434Y0077159D01*
X0115904Y0076550D01*
X0122696Y0076550D01*
X0124166Y0077159D01*
X0125291Y0078284D01*
X0125318Y0078350D01*
X0134632Y0078350D01*
X0134659Y0078284D01*
X0135784Y0077159D01*
X0137254Y0076550D01*
X0138846Y0076550D01*
X0140316Y0077159D01*
X0141441Y0078284D01*
X0142050Y0079754D01*
X0142050Y0081346D01*
X0141441Y0082816D01*
X0140316Y0083941D01*
X0138846Y0084550D01*
X0137254Y0084550D01*
X0135784Y0083941D01*
X0134659Y0082816D01*
X0134632Y0082750D01*
X0125318Y0082750D01*
X0125291Y0082816D01*
X0124166Y0083941D01*
X0122696Y0084550D01*
X0115904Y0084550D01*
X0113817Y0083324D02*
X0094783Y0083324D01*
X0095743Y0081726D02*
X0112857Y0081726D01*
X0112700Y0080127D02*
X0095900Y0080127D01*
X0095392Y0078529D02*
X0113208Y0078529D01*
X0114987Y0076930D02*
X0093613Y0076930D01*
X0094374Y0073733D02*
X0113660Y0073733D01*
X0113834Y0073906D02*
X0113344Y0073416D01*
X0112937Y0072856D01*
X0112622Y0072239D01*
X0112408Y0071580D01*
X0112300Y0070896D01*
X0112300Y0070550D01*
X0119300Y0070550D01*
X0119300Y0070550D01*
X0119300Y0074950D01*
X0122246Y0074950D01*
X0122930Y0074842D01*
X0123589Y0074628D01*
X0124206Y0074313D01*
X0124766Y0073906D01*
X0125256Y0073416D01*
X0125663Y0072856D01*
X0125978Y0072239D01*
X0126192Y0071580D01*
X0126300Y0070896D01*
X0126300Y0070550D01*
X0119300Y0070550D01*
X0119300Y0070550D01*
X0119300Y0066150D01*
X0122246Y0066150D01*
X0122930Y0066258D01*
X0123589Y0066472D01*
X0124206Y0066787D01*
X0124766Y0067194D01*
X0125256Y0067684D01*
X0125663Y0068244D01*
X0125978Y0068861D01*
X0126192Y0069520D01*
X0126300Y0070204D01*
X0126300Y0070550D01*
X0119300Y0070550D01*
X0119300Y0070550D01*
X0119300Y0070550D01*
X0119300Y0074950D01*
X0116354Y0074950D01*
X0115670Y0074842D01*
X0115011Y0074628D01*
X0114394Y0074313D01*
X0113834Y0073906D01*
X0112588Y0072134D02*
X0095573Y0072134D01*
X0095900Y0070536D02*
X0112300Y0070536D01*
X0112300Y0070550D02*
X0112300Y0070204D01*
X0112408Y0069520D01*
X0112622Y0068861D01*
X0112937Y0068244D01*
X0113344Y0067684D01*
X0113834Y0067194D01*
X0114394Y0066787D01*
X0115011Y0066472D01*
X0115670Y0066258D01*
X0116354Y0066150D01*
X0119300Y0066150D01*
X0119300Y0070550D01*
X0112300Y0070550D01*
X0112597Y0068937D02*
X0095562Y0068937D01*
X0094346Y0067339D02*
X0113688Y0067339D01*
X0119300Y0067339D02*
X0119300Y0067339D01*
X0119300Y0068937D02*
X0119300Y0068937D01*
X0119300Y0070536D02*
X0119300Y0070536D01*
X0119300Y0072134D02*
X0119300Y0072134D01*
X0119300Y0073733D02*
X0119300Y0073733D01*
X0123613Y0076930D02*
X0136337Y0076930D01*
X0139763Y0076930D02*
X0150069Y0076930D01*
X0151667Y0078529D02*
X0141542Y0078529D01*
X0142050Y0080127D02*
X0153266Y0080127D01*
X0154864Y0081726D02*
X0141893Y0081726D01*
X0140933Y0083324D02*
X0156463Y0083324D01*
X0159488Y0080127D02*
X0163266Y0080127D01*
X0164864Y0081726D02*
X0161087Y0081726D01*
X0162685Y0083324D02*
X0166463Y0083324D01*
X0168061Y0084923D02*
X0164284Y0084923D01*
X0165882Y0086521D02*
X0169660Y0086521D01*
X0171258Y0088120D02*
X0167481Y0088120D01*
X0169079Y0089718D02*
X0172857Y0089718D01*
X0174455Y0091317D02*
X0170678Y0091317D01*
X0172276Y0092915D02*
X0176054Y0092915D01*
X0177652Y0094514D02*
X0173875Y0094514D01*
X0175473Y0096112D02*
X0179251Y0096112D01*
X0180849Y0097711D02*
X0177072Y0097711D01*
X0174046Y0100908D02*
X0142450Y0100908D01*
X0142450Y0099309D02*
X0172448Y0099309D01*
X0175645Y0102506D02*
X0142316Y0102506D01*
X0135382Y0104105D02*
X0123771Y0104105D01*
X0125419Y0102506D02*
X0133784Y0102506D01*
X0133650Y0100908D02*
X0125900Y0100908D01*
X0125716Y0099309D02*
X0133650Y0099309D01*
X0134667Y0097711D02*
X0124718Y0097711D01*
X0122783Y0094514D02*
X0167652Y0094514D01*
X0166054Y0092915D02*
X0125192Y0092915D01*
X0125900Y0091317D02*
X0164455Y0091317D01*
X0162857Y0089718D02*
X0125885Y0089718D01*
X0125126Y0088120D02*
X0161258Y0088120D01*
X0161667Y0078529D02*
X0157890Y0078529D01*
X0156291Y0076930D02*
X0160069Y0076930D01*
X0158470Y0075332D02*
X0154693Y0075332D01*
X0153094Y0073733D02*
X0156872Y0073733D01*
X0155273Y0072134D02*
X0151496Y0072134D01*
X0149897Y0070536D02*
X0153675Y0070536D01*
X0152076Y0068937D02*
X0148299Y0068937D01*
X0146700Y0067339D02*
X0150478Y0067339D01*
X0148879Y0065740D02*
X0145102Y0065740D01*
X0143503Y0064142D02*
X0147281Y0064142D01*
X0145682Y0062543D02*
X0141905Y0062543D01*
X0140306Y0060945D02*
X0144084Y0060945D01*
X0142485Y0059346D02*
X0138708Y0059346D01*
X0140887Y0057748D02*
X0124755Y0057748D01*
X0125154Y0052952D02*
X0136091Y0052952D01*
X0136800Y0050550D02*
X0119300Y0050550D01*
X0125164Y0048157D02*
X0142546Y0048157D01*
X0139409Y0033770D02*
X0124337Y0033770D01*
X0108810Y0024179D02*
X0063586Y0024179D01*
X0064032Y0028975D02*
X0083023Y0028975D01*
X0083192Y0038566D02*
X0081242Y0038566D01*
X0082700Y0040164D02*
X0078845Y0040164D01*
X0076447Y0041763D02*
X0082873Y0041763D01*
X0083377Y0043361D02*
X0073935Y0043361D01*
X0074300Y0040550D02*
X0031800Y0066800D01*
X0034161Y0068937D02*
X0057031Y0068937D01*
X0056550Y0067339D02*
X0035114Y0067339D01*
X0037702Y0065740D02*
X0056550Y0065740D01*
X0057551Y0064142D02*
X0040290Y0064142D01*
X0042878Y0062543D02*
X0062027Y0062543D01*
X0063826Y0060945D02*
X0045466Y0060945D01*
X0048054Y0059346D02*
X0065624Y0059346D01*
X0067422Y0057748D02*
X0050642Y0057748D01*
X0053230Y0056149D02*
X0069220Y0056149D01*
X0071019Y0054551D02*
X0055818Y0054551D01*
X0058406Y0052952D02*
X0072817Y0052952D01*
X0074615Y0051354D02*
X0060995Y0051354D01*
X0063583Y0049755D02*
X0076414Y0049755D01*
X0078212Y0048157D02*
X0066171Y0048157D01*
X0068759Y0046558D02*
X0080010Y0046558D01*
X0081779Y0044960D02*
X0071347Y0044960D01*
X0083050Y0046800D02*
X0089300Y0040550D01*
X0083050Y0046800D02*
X0060550Y0066800D01*
X0058565Y0070536D02*
X0010842Y0070536D01*
X0011884Y0068937D02*
X0029439Y0068937D01*
X0028619Y0067339D02*
X0012283Y0067339D01*
X0012201Y0065740D02*
X0028796Y0065740D01*
X0029959Y0064142D02*
X0011618Y0064142D01*
X0010298Y0062543D02*
X0034505Y0062543D01*
X0037093Y0060945D02*
X0009868Y0060945D01*
X0011265Y0059346D02*
X0039681Y0059346D01*
X0042269Y0057748D02*
X0018963Y0057748D01*
X0020562Y0056149D02*
X0044857Y0056149D01*
X0047445Y0054551D02*
X0022390Y0054551D01*
X0023759Y0052952D02*
X0050033Y0052952D01*
X0052622Y0051354D02*
X0024000Y0051354D01*
X0023173Y0049755D02*
X0055210Y0049755D01*
X0068061Y0068937D02*
X0069665Y0068937D01*
X0070823Y0070536D02*
X0066463Y0070536D01*
X0064864Y0072134D02*
X0071364Y0072134D01*
X0069730Y0073733D02*
X0063710Y0073733D01*
X0062767Y0075332D02*
X0068994Y0075332D01*
X0069079Y0078529D02*
X0045728Y0078529D01*
X0044306Y0080127D02*
X0069919Y0080127D01*
X0071852Y0081726D02*
X0045945Y0081726D01*
X0046231Y0083324D02*
X0070563Y0083324D01*
X0069557Y0084923D02*
X0045676Y0084923D01*
X0043050Y0083050D02*
X0010550Y0083050D01*
X0006800Y0086800D01*
X0010685Y0080127D02*
X0041794Y0080127D01*
X0040372Y0078529D02*
X0027534Y0078529D01*
X0035335Y0073733D02*
X0010945Y0073733D01*
X0008863Y0072134D02*
X0040809Y0072134D01*
X0043050Y0075550D02*
X0018050Y0076800D01*
X0006800Y0076800D01*
X0006800Y0056800D02*
X0016800Y0056800D01*
X0021800Y0051800D01*
X0020719Y0051800D01*
X0018265Y0049755D02*
X0018137Y0049755D01*
X0017538Y0051354D02*
X0009133Y0051354D01*
X0010165Y0052952D02*
X0017536Y0052952D01*
X0015938Y0054551D02*
X0011389Y0054551D01*
X0011057Y0049755D02*
X0015594Y0049755D01*
X0013968Y0048157D02*
X0011758Y0048157D01*
X0011900Y0046558D02*
X0013684Y0046558D01*
X0014246Y0044960D02*
X0011558Y0044960D01*
X0010574Y0043361D02*
X0031500Y0043361D01*
X0032380Y0044960D02*
X0019485Y0044960D01*
X0011154Y0040164D02*
X0028303Y0040164D01*
X0026705Y0038566D02*
X0012009Y0038566D01*
X0012118Y0035369D02*
X0023507Y0035369D01*
X0021909Y0033770D02*
X0011397Y0033770D01*
X0009787Y0032172D02*
X0020310Y0032172D01*
X0018712Y0030573D02*
X0010239Y0030573D01*
X0011419Y0028975D02*
X0017113Y0028975D01*
X0015515Y0027376D02*
X0011900Y0027376D01*
X0011897Y0025778D02*
X0013916Y0025778D01*
X0012318Y0024179D02*
X0011235Y0024179D01*
X0010719Y0022581D02*
X0009793Y0022581D01*
X0007000Y0036967D02*
X0025106Y0036967D01*
X0029902Y0041763D02*
X0009175Y0041763D01*
X0055176Y0017785D02*
X0062405Y0017785D01*
X0060224Y0016187D02*
X0056775Y0016187D01*
X0082016Y0060945D02*
X0082700Y0060945D01*
X0083196Y0062543D02*
X0080418Y0062543D01*
X0078719Y0064142D02*
X0084919Y0064142D01*
X0085550Y0066800D02*
X0089300Y0070550D01*
X0087602Y0065740D02*
X0138879Y0065740D01*
X0137281Y0064142D02*
X0123681Y0064142D01*
X0124912Y0067339D02*
X0140478Y0067339D01*
X0142076Y0068937D02*
X0126002Y0068937D01*
X0126300Y0070536D02*
X0143675Y0070536D01*
X0145273Y0072134D02*
X0126012Y0072134D01*
X0124940Y0073733D02*
X0146872Y0073733D01*
X0148470Y0075332D02*
X0079606Y0075332D01*
X0078870Y0073733D02*
X0084226Y0073733D01*
X0083027Y0072134D02*
X0077236Y0072134D01*
X0077776Y0070536D02*
X0082700Y0070536D01*
X0085550Y0066800D02*
X0074300Y0066800D01*
X0074300Y0086800D02*
X0083050Y0086800D01*
X0082377Y0089718D02*
X0078594Y0089718D01*
X0076723Y0091317D02*
X0082367Y0091317D01*
X0089300Y0091317D02*
X0089300Y0091317D01*
X0089300Y0092915D02*
X0089300Y0092915D01*
X0089300Y0094514D02*
X0089300Y0094514D01*
X0093813Y0094514D02*
X0102536Y0094514D01*
X0103686Y0092915D02*
X0095620Y0092915D01*
X0089300Y0089718D02*
X0089300Y0089718D01*
X0089300Y0088120D02*
X0089300Y0088120D01*
X0089300Y0086521D02*
X0089300Y0086521D01*
X0084829Y0104105D02*
X0017607Y0104105D01*
X0014581Y0100908D02*
X0009905Y0100908D01*
X0009719Y0102506D02*
X0012983Y0102506D01*
X0011384Y0104105D02*
X0011204Y0104105D01*
X0012811Y0108900D02*
X0016588Y0108900D01*
X0023429Y0121688D02*
X0041328Y0121688D01*
X0042595Y0123287D02*
X0023898Y0123287D01*
X0020550Y0123050D02*
X0029300Y0131800D01*
X0088050Y0131800D01*
X0089300Y0130550D01*
X0083511Y0128082D02*
X0028694Y0128082D01*
X0019562Y0137673D02*
X0015785Y0137673D01*
X0014186Y0136075D02*
X0017964Y0136075D01*
X0016365Y0134476D02*
X0011358Y0134476D01*
X0010090Y0132878D02*
X0014767Y0132878D01*
X0013168Y0131279D02*
X0009313Y0131279D01*
X0011127Y0129681D02*
X0011570Y0129681D01*
X0011800Y0126800D02*
X0025550Y0140550D01*
X0089300Y0140550D01*
X0083780Y0123287D02*
X0046005Y0123287D01*
X0044300Y0120550D02*
X0089300Y0120550D01*
X0110822Y0097711D02*
X0113882Y0097711D01*
X0112884Y0099309D02*
X0112420Y0099309D01*
X0124783Y0083324D02*
X0135167Y0083324D01*
X0138050Y0080550D02*
X0119300Y0080550D01*
X0183070Y0016187D02*
X0189280Y0016187D01*
X0189401Y0009793D02*
X0182949Y0009793D01*
X0193600Y0062543D02*
X0194000Y0062543D01*
X0194000Y0064142D02*
X0193600Y0064142D01*
X0193600Y0065740D02*
X0194000Y0065740D01*
X0189654Y0073733D02*
X0186458Y0073733D01*
X0113943Y0009793D02*
X0112949Y0009793D01*
X0011800Y0126800D02*
X0006800Y0126800D01*
X0006800Y0136800D02*
X0011800Y0136800D01*
X0025550Y0150550D01*
X0023949Y0152060D02*
X0003600Y0152060D01*
X0003600Y0150462D02*
X0022350Y0150462D01*
X0020752Y0148863D02*
X0003600Y0148863D01*
X0003600Y0147265D02*
X0019153Y0147265D01*
X0017555Y0145666D02*
X0003600Y0145666D01*
X0003600Y0144068D02*
X0015956Y0144068D01*
X0014358Y0142469D02*
X0003600Y0142469D01*
X0003600Y0140870D02*
X0003658Y0140870D01*
X0009942Y0140870D02*
X0012759Y0140870D01*
X0017383Y0139272D02*
X0021161Y0139272D01*
X0022759Y0140870D02*
X0018982Y0140870D01*
X0020580Y0142469D02*
X0024358Y0142469D01*
X0003600Y0176038D02*
X0075701Y0176038D01*
X0074102Y0177636D02*
X0003600Y0177636D01*
X0003600Y0179235D02*
X0072504Y0179235D01*
X0075927Y0182432D02*
X0078238Y0182432D01*
X0077199Y0184030D02*
X0077097Y0184030D01*
X0077128Y0180833D02*
X0093972Y0180833D01*
X0095571Y0182432D02*
X0084358Y0182432D01*
X0085397Y0184030D02*
X0097169Y0184030D01*
X0098768Y0185629D02*
X0085667Y0185629D01*
X0085332Y0187227D02*
X0100366Y0187227D01*
X0101965Y0188826D02*
X0084200Y0188826D01*
X0078396Y0188826D02*
X0075769Y0188826D01*
X0077032Y0187227D02*
X0077264Y0187227D01*
X0071079Y0188826D02*
X0067895Y0188826D01*
X0069158Y0187227D02*
X0069816Y0187227D01*
X0063205Y0188826D02*
X0060021Y0188826D01*
X0061284Y0187227D02*
X0061942Y0187227D01*
X0061877Y0184030D02*
X0061349Y0184030D01*
X0060179Y0182432D02*
X0063047Y0182432D01*
X0055331Y0188826D02*
X0052704Y0188826D01*
X0053836Y0187227D02*
X0054068Y0187227D01*
X0054003Y0184030D02*
X0053901Y0184030D01*
X0052862Y0182432D02*
X0055173Y0182432D01*
X0036820Y0193621D02*
X0011780Y0193621D01*
X0014621Y0192023D02*
X0033979Y0192023D01*
X0032584Y0190424D02*
X0016016Y0190424D01*
X0016679Y0188826D02*
X0031921Y0188826D01*
X0031660Y0187227D02*
X0016940Y0187227D01*
X0016940Y0185629D02*
X0031660Y0185629D01*
X0032230Y0184030D02*
X0016370Y0184030D01*
X0015476Y0182432D02*
X0033124Y0182432D01*
X0034756Y0180833D02*
X0013844Y0180833D01*
X0006016Y0180833D02*
X0003600Y0180833D01*
X0003600Y0182432D02*
X0004384Y0182432D01*
X0003843Y0190424D02*
X0003600Y0190424D01*
X0003600Y0192023D02*
X0005239Y0192023D01*
X0003600Y0193621D02*
X0008080Y0193621D01*
X0098596Y0179235D02*
X0106893Y0179235D01*
X0105294Y0180833D02*
X0100195Y0180833D01*
X0101793Y0182432D02*
X0104900Y0182432D01*
X0104900Y0184030D02*
X0103392Y0184030D01*
X0104990Y0185629D02*
X0105656Y0185629D01*
X0106589Y0187227D02*
X0107255Y0187227D01*
X0113700Y0184030D02*
X0115300Y0184030D01*
X0115300Y0182432D02*
X0113700Y0182432D01*
X0113306Y0180833D02*
X0115860Y0180833D01*
D19*
X0101800Y0161800D03*
X0099300Y0150550D03*
X0105550Y0095550D03*
X0060550Y0073050D03*
X0043050Y0083050D03*
X0031800Y0066800D03*
X0020719Y0051800D03*
X0016866Y0046839D03*
X0035550Y0044300D03*
X0026800Y0023050D03*
X0069300Y0035550D03*
X0105550Y0049300D03*
X0044300Y0120550D03*
X0020550Y0123050D03*
X0024300Y0086800D03*
X0185550Y0076800D03*
M02*
